<svg xmlns="http://www.w3.org/2000/svg" viewBox="0 0 1080 1080"><defs><linearGradient id="a" x1="881.88" x2="166.39" y1="856.94" y2="141.46" gradientUnits="userSpaceOnUse"><stop offset="0" stop-color="#ead9fb"/><stop offset="1" stop-color="#dab8f9"/></linearGradient></defs><g data-name="Psychological test"><rect width="799.84" height="749.97" x="124.21" y="124.21" fill="url(#a)" rx="101.44"/><ellipse cx="760.87" cy="960.85" fill="#e5e5ff" rx="246.01" ry="37.07"/><path fill="none" stroke="#fff" stroke-linecap="round" stroke-linejoin="round" stroke-width="4" d="M500.09 178.57v330.87H831V178.57ZM655.27 489H520.58V354.26h134.69Zm0-155.19H520.58V199.07h134.69ZM810.46 489H675.77V354.26h134.69Zm0-155.19H675.77V199.07h134.69Z" opacity=".4"/><path fill="#9ba7bc" d="M579.4 614v-79.34h-18.3v79.18a18.6 18.6 0 0 0 5.45 13.16l57.12 57.12 12.93-12.94Z"/><path fill="#bdc9e2" d="M616.29 724.32h309.54v15.45H616.29z"/><path fill="#bdc9e2" d="m706.08 972.44 60.1-237.74h15.44l-60.1 237.74h-15.44zM980 457.61c0 .1 1.68-8.32-53.42 266.71h-15.46c37.63-187.91 23.5-117.41 57.37-286.45A22.14 22.14 0 0 1 980 457.61ZM851.79 437.65c-35.88 179.12-20.87 104.19-57.43 286.67h-15.45c41.39-206.6 29.61-148.2 52.93-262.61a33.15 33.15 0 0 1 19.95-24.06ZM574.24 972.44l60.1-237.74h15.44l-60.09 237.74h-15.45z"/><path fill="#bdc9e2" d="M925.11 734.7h-15.45L961 937.78A15.43 15.43 0 0 1 946 957h-84.52a15.43 15.43 0 0 1-15-11.65L793.27 734.7h-15.45l54.78 216.68a27.9 27.9 0 0 0 27 21.06h89.75a27.9 27.9 0 0 0 27-34.73Z"/><path fill="#7e7ae3" d="M980 457.61c0 2.8 1.58-5.76-23 114.59H809.32l22.52-110.49a33.22 33.22 0 0 1 32.51-26.54h93.52A22.1 22.1 0 0 1 980 457.61ZM638.62 706.94h262.95a12.68 12.68 0 0 1 12.68 12.68v4.7h-288.3v-4.7a12.68 12.68 0 0 1 12.67-12.68Z"/><path fill="#2b2b2b" d="M820.92 231.89s11.35-1.32 20.28 14.43c6.37 11.26 7.21 108.46 7.21 108.46l-83.77 7.36 8-80.25Z"/><path fill="#f9af01" d="M626.29 505c10.59 2.84 46-24.26 58.17-32.26 3.52-2.1 28.57-18.64 28.68-18.72 58.82-39.14 80.77-50.54 91.76-65.41 22.79-30.85-9.71-71.83-48-57.09-15.13 5.83-41.93 26.83-66.69 53.61-17.65 19.09-63.17 58.92-69.68 68.44-23.59 34.43-14.45 46.07 5.76 51.43Z"/><path fill="#e09705" d="M708.4 383.28s-19.82 25.39-24.9 45.48c-3.4 13.47 0 44.76 0 44.76l66.19-43.32Z"/><path fill="#e5a7a4" d="M571.74 367.81c-2.38-10.5-4.28-19-5.47-24.12-3.87-16.58 17.45-38.42 26.84-15 2.08 5.19 6.12 14.81 11.14 26.63Z"/><path fill="#ffbf3e" d="m571.82 377.22 36.59-16-5.87-15.06a4.65 4.65 0 0 0-5.94-2.67l-26.74 9.86a4.64 4.64 0 0 0-2.88 5.55Z"/><path fill="#f9af01" d="M570.25 370.68s24.59 92.86 30.67 111.48c4.41 13.52 19.42 26.67 33.34 21.88 13.14-4.51 25.63-17.31 17.4-38.5l-45.41-109.86Z"/><path fill="#e5a7a4" d="M592.21 315S603 333.72 590 343.53c-8.68 6.58-23.49 10.65-35.47-16.34-6.27-14.19 25.36-29.73 37.68-12.19Z"/><path fill="#e5a7a4" d="M596.22 327.2c.89-3.51 8-32.1 4.85-33.86-5.87-3.34-10.71 14.26-14.32 17s9.47 16.86 9.47 16.86ZM573.58 303.83c-5.24-8.2-12.82-1.1-10.53 3.35 4.88 9.73 10.67 11.74 13.31 10 2.09-1.39 2.11-5.71-2.78-13.35Z"/><path fill="#e5a7a4" d="M565.73 310.76c-4.79-7.5-11.73-1-9.63 3.06 4.46 8.9 9.75 10.74 12.18 9.14 1.9-1.26 1.92-5.21-2.55-12.2Z"/><path fill="#e5a7a4" d="M561.05 318c-4.83-7.56-11.82-1-9.71 3.09 4.5 9 9.83 10.82 12.27 9.2 1.93-1.29 1.94-5.29-2.56-12.29Z"/><path fill="#d87777" d="M561.71 331.49c-2.23 0-5.12-1.5-8-5.25a.69.69 0 0 1 .13-1 .7.7 0 0 1 1 .13c3.28 4.29 6.71 5.4 8.4 4.28 1.29-.86 1.21-3.35-.23-6.66a.7.7 0 0 1 1.29-.56c2.48 5.75.63 7.78-.29 8.38a4.09 4.09 0 0 1-2.3.68Z"/><path fill="#e5a7a4" d="M587.47 312s-9.31-36.56-15.37-34.59c-7.77 2.53 4.65 38.39 5.51 39.9 1.7 3 11.49-.66 9.86-5.31Z"/><path fill="#d87777" d="M581.22 336.47a.73.73 0 0 1-.6-.33c-7.8-12.6 5.5-26.14 5.64-26.28a.7.7 0 0 1 1 1c-.13.13-12.66 12.9-5.44 24.55a.7.7 0 0 1-.6 1.06ZM574.32 318.44c-5.1 0-9.61-6.39-11.89-10.94a.69.69 0 0 1 .31-.94.7.7 0 0 1 .94.31c3.91 7.8 7.87 9.59 9.39 10a3.62 3.62 0 0 0 2.91-.28c1.59-1.06 1.77-4.94-3-12.38a.7.7 0 1 1 1.18-.76c4.5 7.05 5.47 12.39 2.58 14.3a4.32 4.32 0 0 1-2.42.69Z"/><path fill="#d87777" d="M564.92 324c-1.94-.51-5.76-2.48-9.45-9.83a.7.7 0 1 1 1.25-.63c3.57 7.12 7.18 8.74 8.56 9.11a3.2 3.2 0 0 0 2.61-.25c1.16-.76 1.52-3.29-.94-8.09a.71.71 0 0 1 .3-.95.7.7 0 0 1 .94.31c4.34 8.43.74 11.33-3.27 10.33Z"/><path fill="#303030" d="M567.83 637.34c-32.11 23-13.77 79.8 49.57 87.12 3.51.41 19.9.51 33.55-.8 22.88-2.2 59.55-6.88 91.91-16.2 34.13-9.84 58.21-36.59 62.52-57.71 11.94-58.57-16.47-114.66-121.25-73.49-75.3 29.56-99.97 49.38-116.3 61.08Z"/><path fill="#050505" d="m664.17 655.65 46 59.58-28.18 4.74-17.82-64.32z"/><path fill="#050505" d="M684.13 576.26 682 720c54.65-2.35 118.13-36.55 181.06-68.77l-150.15-84.4Z"/><path fill="#e5a7a4" d="M674.3 894.89h28.91v57.92H674.3z" transform="rotate(158.15 688.763 923.845)"/><path fill="#d18581" d="m695.54 901.92-22.98 20.36-4.14-10.32 27.12-10.04z"/><path fill="#8e4f36" d="M666.75 944c2.74-3.11-4.14-10.65-1.35-13.8s14.18-7.27 17.52-6.14c1.71.58 2.68 3.83 3.21 6.86 2.15 3.91 4.84 4.63 12.06 1.73 6.21-2.49 6-6.47 8.73-7.54 2.42-1 3.85 1.81 3.85 1.81s12.43 20.72 10.42 26c-1.09 2.83-22.57 11.9-42.41 19.26-17.79.65-33.86.85-35.2-4.19-2.15-8.14 9.1-10.06 12.48-10 4.51-4.99 6.73-7.29 10.69-13.99Z"/><path fill="#303030" d="M666.75 944.79a.84.84 0 0 1 0-1.67l14.23-.67a.84.84 0 0 1 .87.79.83.83 0 0 1-.79.88c-18.87.88-13.26.67-14.31.67ZM661.54 952.32a.84.84 0 0 1 0-1.68l13.51-.78a.84.84 0 0 1 .09 1.68c-17.93 1.03-12.6.78-13.6.78ZM655.06 959.8a.84.84 0 0 1 0-1.67l13.53-.64a.86.86 0 0 1 .88.8.84.84 0 0 1-.8.87c-17.95.84-12.61.64-13.61.64ZM660.25 909.66c-28.27-64.49-95.63-196.23-104-216.34-10-23.77-2.25-56.11 29-66.58s70.76.59 90.12 50.67c7.31 18.92 22.41 198.43 30.07 218.88-19.16 12.29-39.63 21.13-45.19 13.37Z"/><path fill="#f9af01" d="M684.13 576.26c-8.5 22.73 75.28 45.37 126 69 68 31.6 91.24 18 105.91 5.51 0-46.31-2.86-307.14-43.45-319-20-5.83-78.53-3.12-104.23-3.12-32.06 0-80.75 78.4-80.75 104.14 0 25.52 7.48 34.25 17.74 48.16.04 35.05-2.07 44.11-21.22 95.31Z"/><path fill="#303030" d="M888.61 706.09c-9.91 10.4-29 16.69-43 19.93-17.86 4.18-37.81 6-56.32 6-114.64 0-132.39-126.54-5.19-126.54 140.09.02 146.07 56.96 104.51 100.61Z"/><path fill="#050505" d="M831.5 728.78c-9.5 1.73-19.73 2.31-30.5 3.22l11.57-53.24Z"/><path fill="#e5a7a4" d="M733.82 900.38h28.91v57.92h-28.91z" transform="rotate(176.66 748.253 929.361)"/><path fill="#8e4f36" d="M730 939.19c0-2.9-.15-12 3.38-12.68 2.32-.45 13.38-2.48 17.14 0 3 2 .36 22.36 14.08 9.72.65.1 3.62.28 3.62 3 0 12.75 3 19.95 2.11 24.62-1.79 9.38-7.36 8.76-21.22 8.52-14 .24-29.52-.86-32.54-1l-.15-.14c-5-.9-8.51-2.38-8.51-4.66C707.88 952 730 951.94 730 939.19Z"/><path fill="#303030" d="M745.5 940.48H730a.83.83 0 0 1-.83-.83.84.84 0 0 1 .83-.84h15.5a.85.85 0 0 1 .84.84.84.84 0 0 1-.84.83ZM740.89 946.67h-13.36a.84.84 0 0 1 0-1.68h13.36a.84.84 0 0 1 0 1.68ZM738.59 952.84h-19.35a.84.84 0 0 1 0-1.68h19.35a.84.84 0 1 1 0 1.68Z"/><path fill="#d18581" d="m761.69 910.97-28.34 10.67-.58-9.85 28.92-.82z"/><path fill="#303030" d="M695.78 668.65c1.56 21.56 23.71 168.89 30 238.18.83 2.69 3.34 4.43 7 5.38 10.65 2.78 29.34-1 40-3.72-.76-21.8 42-197.13 41-217.1-1.74-38-19.27-60.6-41-70.58-13.27-6.07-30.65-8.18-44.13-3.67-22.21 7.19-34.45 29.66-32.87 51.51Z"/><path fill="#e09705" d="m840.79 423.04 13.93 59.16-46.22 1.71 79.73 25.88-47.44-86.75zM726.92 505c6.62 5.34 16.18 9 29.83 10.47a52.29 52.29 0 0 1 29.85 13.63 52.88 52.88 0 0 0 15.94 10.07l102 41.2 11.56 70.39-2.17-99.14-141.41-49.06ZM784.44 348.69c15.38-3.94 28.36-1 37.38 11.8a2.83 2.83 0 0 0 5-.79 74.44 74.44 0 0 0 2.87-31.87s-2.31-6.9-8-7.69-33.69 1.38-33.69 1.38c-7-.17-16.3 6.06-22.86 14.64a45.4 45.4 0 0 0-4.63 7.41 2.8 2.8 0 0 0 3.77 3.74c6.49-3.47 13.54-1.97 20.16 1.38Z"/><path fill="#e5a7a4" d="m812.4 278.13 1 49.36 7.25-.1-36.25 21.3-.37-20.23s4.14-.31 6.11-.44l.91-24.94Z"/><path fill="#d18581" d="M804.52 295.73s-.25 15.67-13.82 19.1l.67-14Z"/><path fill="#050505" d="M791.42 223s-30.42-10.82-36.17 11.24c-8 30.81 16.22 51.23 16.22 51.23Z"/><path fill="#e5a7a4" d="M773.42 246.59c8.84-11.25 41.61-8.19 42.7 11.34s-12.28 52.71-35.79 52.71c-7.74 0-15.09-21.45-13.28-25.87 3.16-10.57-.3-17.91-.4-22.06s3.58-12.07 6.77-16.12Z"/><path fill="#2b2b2b" d="M812.88 300.84c11.81 2.16 31.78-37.94 29.65-50.65-3.32-19.76-12.31-34.27-48-34.27-22.58 0-26.7 16.62-26.7 25.55 0 21.79 37.16 28.61 43.1 28.78.47 8.75 1.95 30.59 1.95 30.59Z"/><ellipse cx="813.79" cy="274.2" fill="#e5a7a4" rx="6.98" ry="4.42" transform="rotate(-70.18 813.828 274.189)"/><ellipse cx="787.78" cy="271.27" rx="3.51" ry="2.03" transform="rotate(-89.44 787.783 271.266)"/><ellipse cx="772.39" cy="271.12" rx="3.51" ry="2.03" transform="rotate(-89.44 772.391 271.115)"/><path fill="#2b2b2b" d="M793.1 262.39c-.05-.51-1.05-1.54-4-1.89-2-.24-5 .63-5.07 1.57-.19 2.31 3 .76 5.39.54s3.73.3 3.68-.22ZM766.65 262.14c.06-.52 1.09-1.52 4.05-1.82 2-.2 5 .73 5 1.67.15 2.31-3 .7-5.4.43s-3.7.23-3.65-.28Z"/><path fill="#de8180" d="M779.07 287.65c-2.17 0-5.21-.66-5.18-2.86 0-2.54 3.74-10.48 3.9-10.82a.4.4 0 0 1 .73.34c0 .09-3.81 8.12-3.83 10.49 0 1.61 2.85 2 4.39 2.05a.4.4 0 1 1-.01.8Z"/><path d="M781 299.39a9.3 9.3 0 0 1-4.23-.89.4.4 0 1 1 .38-.7s5.48 2.82 12.71-2.52a.4.4 0 0 1 .48.64 15.7 15.7 0 0 1-9.34 3.47Z"/><path fill="#f9af01" d="M941.67 555.26C957.22 532.79 917.3 367 898.41 346.5c-26-28.18-70.42-17.15-70.67 23.91-.09 16.21 9.69 48.83 25.6 81.64 11.34 23.4 31.83 80.31 38.32 89.84 23.39 34.46 38.1 30.57 50.01 13.37Z"/><path fill="#e5a7a4" d="M796.87 518.6c-9.75-4.57-17.62-8.29-22.39-10.5-15.46-7.13-19.6-37.37 4.63-30.4 5.37 1.54 15.44 4.26 27.86 7.56Z"/><path fill="#ffbf3e" d="m804.35 524.32 9.86-38.7-15.49-4.62a4.65 4.65 0 0 0-5.76 3l-8.64 27.15a4.65 4.65 0 0 0 2.6 5.69Z"/><path fill="#f9af01" d="M798.22 521.54s88.39 37.63 106.78 44.27c13.38 4.83 33 1.05 37.75-12.87 4.51-13.14 2.08-30.85-19.69-37.38L808.5 483.91Z"/><path fill="#e5a7a4" d="M761 467.38s22.54 3.27 22.24 20.39c-.2 11.46-6.45 26.37-36.59 18.75-15.83-4-8.16-40.3 14.35-39.14Z"/><path fill="#e5a7a4" d="M773.73 472c-2.32-3-21.42-27.46-24.89-26-6.58 2.7 4.85 18.14 4.79 22.92s20.1 3.08 20.1 3.08ZM751.19 476.48s-9.1-1.62-18.61-2.54c-10.19-1-15.83 1.28-14.66 4.81.88 2.69 2.68 4.63 7.86 5.63a96.54 96.54 0 0 0 26.22 3.87c3.64-.32 4.38-11.25-.81-11.77ZM738.15 505.71s15.41 3.32 16.16-3.35c1-8.55-15-7.31-16.85-7.19-4.09.26-7.46 8.37.69 10.54Z"/><path fill="#e5a7a4" d="M739.85 486.93s-15.23-3.3-16.15 3.35c-.9 6.49 14.59 6.11 16.41 6 3.63-.37 4.94-8.88-.26-9.35Z"/><path fill="#2b2b2b" d="m718.87 491.53-3.43 8.33a.91.91 0 0 0 1.22 1.17l8.21-3.7 58.62-60.61a1.82 1.82 0 0 0 0-2.57l-3.39-3.28a1.82 1.82 0 0 0-2.57 0Z"/><path fill="#e5a7a4" d="M755.44 469.36s-36.33-16-38.64-9.73c-3 8.07 34.82 21.09 36.63 21.36 3.57.55 6.94-9.93 2.01-11.63Z"/><path fill="#d87777" d="M759.27 471.42c-.12 0 .22.11-5.8-2.09a.45.45 0 0 1 .31-.85l5.65 2.06a.46.46 0 0 1-.16.88ZM744.07 488.78c-.1 0 .38.09-8.57-1.86a.46.46 0 0 1 .19-.89l8.47 1.85a.46.46 0 0 1-.09.9ZM746.31 479a19.9 19.9 0 0 1-2.69-.81.45.45 0 0 1 .27-.86l2.55.79a.45.45 0 0 1-.13.88Z"/><path fill="#d1763e" d="M518.86 525.86h245.27v23.53H518.86a4 4 0 0 1-4-4v-15.53a4 4 0 0 1 4-4Z"/><rect width="121.23" height="23.53" x="686.99" y="525.86" fill="#8e4f36" rx="4"/><path fill="#788696" d="M648.32 240.16c38.08 0 36.86.1 36.86 0a12 12 0 0 1-12 12h-12.87a12 12 0 0 1-11.99-12Z"/><path fill="#9dacbf" d="M640.59 201.9h52.32v29.78a9.46 9.46 0 0 1-9.46 9.46h-33.4a9.46 9.46 0 0 1-9.46-9.46V201.9Z"/><path fill="#fcae3c" d="M717.8 133.68a51.05 51.05 0 1 0-86.61 36.62 34.1 34.1 0 0 1 10.48 24.44c0 .1-1.51 0 50.16 0a34 34 0 0 1 10.41-24.38 50.89 50.89 0 0 0 15.56-36.68Z"/><path fill="#fff" d="m656.63 194.76-.41-17.29-22.14-41.09a.79.79 0 0 1 1.23-.95l13.48 12.77 1.44-15.45a.79.79 0 0 1 1.48-.3l7.6 14.09 6.69-14.06a.79.79 0 0 1 1.39 0l7.67 13.35 9.79-12.27a.79.79 0 0 1 1.4.57L685 147.88l13.15-12.45a.79.79 0 0 1 1.23.95l-22.09 41.51-.47 16.87a.78.78 0 0 1-.81.77.8.8 0 0 1-.76-.81l.47-17.06c0-.28-1.29 2.24 20-37.75l-11.15 10.55a.78.78 0 0 1-1.32-.64l1.2-13.27-8.88 11.12a.78.78 0 0 1-1.3-.1l-7.5-13.06-6.75 14.11a.78.78 0 0 1-1.4 0l-7.1-13.17-1.31 14.55a.78.78 0 0 1-1.32.5L637.8 140c21.33 39.58 20 37 20 37.28l.41 17.48a.79.79 0 0 1-.77.81.8.8 0 0 1-.81-.81Z"/><rect width="58.41" height="9.89" x="637.55" y="193.23" fill="#788696" rx="1.97"/><path fill="#788696" d="m692.85 209.69-52.33-3.42a1 1 0 0 1-.91-1.05 1 1 0 0 1 1-.92l52.39 3.42a1 1 0 0 1-.12 2ZM692.85 216.91l-52.33-3.43a1 1 0 0 1 .13-2l52.35 3.46a1 1 0 0 1 .92 1.05 1 1 0 0 1-1.07.92ZM692.85 224.12l-52.33-3.42a1 1 0 0 1 .13-2l52.35 3.45a1 1 0 0 1 .92 1 1 1 0 0 1-1.07.97ZM692.85 231.34l-52.33-3.42a1 1 0 0 1 .13-2l52.35 3.45a1 1 0 0 1-.12 2ZM692.85 238.56l-52.33-3.43a1 1 0 0 1 .13-2l52.35 3.46a1 1 0 0 1 .92 1 1 1 0 0 1-1.07.97Z"/><path fill="#fcae3c" d="M597.88 133.73h-27.36a1.23 1.23 0 0 1 0-2.46h27.36a1.23 1.23 0 1 1 0 2.46ZM763 133.73h-27.38a1.23 1.23 0 0 1 0-2.46H763a1.23 1.23 0 1 1 0 2.46ZM618.05 85a1.24 1.24 0 0 1-.87-.36l-19.34-19.31a1.23 1.23 0 0 1 1.73-1.74l19.35 19.35a1.22 1.22 0 0 1-.87 2.06ZM734.79 201.78a1.21 1.21 0 0 1-.86-.36l-19.35-19.35a1.23 1.23 0 1 1 1.74-1.74l19.34 19.35a1.23 1.23 0 0 1-.87 2.1ZM715.45 85a1.22 1.22 0 0 1-.87-2.09l19.35-19.35a1.23 1.23 0 0 1 1.73 1.74l-19.34 19.37a1.24 1.24 0 0 1-.87.33ZM598.7 201.78a1.23 1.23 0 0 1-.86-2.1l19.34-19.35a1.23 1.23 0 1 1 1.74 1.74l-19.35 19.35a1.22 1.22 0 0 1-.87.36ZM666.75 64.86a1.23 1.23 0 0 1-1.23-1.23V36.27a1.23 1.23 0 1 1 2.46 0v27.36a1.23 1.23 0 0 1-1.23 1.23Z"/><path fill="#7e7ae3" d="M73.12 80.52h398.95v562.42H73.12z"/><path fill="#fff" d="M105.14 111.39h334.91v500.69H105.14z"/><path fill="#9ba7bc" d="M203.22 62.23H342a7.36 7.36 0 0 1 7.36 7.36v41.8h-153.5v-41.8a7.36 7.36 0 0 1 7.36-7.36Z"/><path fill="#bdc9e2" d="M348.83 143.61H196.35a19.31 19.31 0 0 1-19.28-19.29v-19.59a19.3 19.3 0 0 1 19.28-19.28h152.48a19.31 19.31 0 0 1 19.29 19.28v19.59a19.31 19.31 0 0 1-19.29 19.29Zm-152.48-48a9.14 9.14 0 0 0-9.13 9.13v19.59a9.14 9.14 0 0 0 9.13 9.14h152.48a9.15 9.15 0 0 0 9.14-9.14v-19.6a9.15 9.15 0 0 0-9.14-9.13Z"/><path fill="#bdc9e2" d="M230.49 79.76h84.21v22.86h-84.21z"/><circle cx="246.01" cy="91.19" r="5.05" fill="#fff"/><circle cx="299.17" cy="91.19" r="5.05" fill="#fff"/><path fill="#f9af01" d="M132.84 153.6h279.5v41.23h-279.5z"/><path fill="#ecf0f9" d="M356.07 214.68h56.27v56.27h-56.27z"/><path fill="#fff" d="M396.86 232.6a12.68 12.68 0 0 0-25.34.8h4.72a8 8 0 0 1 8.48-8 8.06 8.06 0 0 1 7.43 7.44 8 8 0 0 1-4.46 7.67 10.7 10.7 0 0 0-5.85 9.6v2.78h4.72v-2.78a5.94 5.94 0 0 1 3.21-5.36 12.65 12.65 0 0 0 7.09-12.15ZM384.2 258a3.46 3.46 0 1 0 3.47 3.46 3.46 3.46 0 0 0-3.47-3.46Z"/><path fill="#ecf0f9" d="M356.07 290.93h56.27v56.27h-56.27zM356.07 367.17h56.27v56.27h-56.27zM356.07 443.41h56.27v56.27h-56.27zM356.07 519.66h56.27v56.27h-56.27z"/><path fill="#fff" d="M396.86 308.84a12.68 12.68 0 0 0-25.34.8h4.72a8 8 0 0 1 8.48-7.94 8 8 0 0 1 3 15.11 10.67 10.67 0 0 0-5.85 9.59v2.79h4.72v-2.79a5.92 5.92 0 0 1 3.21-5.35 12.68 12.68 0 0 0 7.06-12.21ZM384.2 334.24a3.47 3.47 0 1 0 3.47 3.46 3.46 3.46 0 0 0-3.47-3.46ZM396.86 385.08a12.68 12.68 0 0 0-25.34.81h4.72a8 8 0 0 1 8.48-7.95 8 8 0 0 1 7.43 7.44 8 8 0 0 1-4.46 7.67 10.69 10.69 0 0 0-5.85 9.6v2.78h4.72v-2.78a5.93 5.93 0 0 1 3.21-5.36 12.66 12.66 0 0 0 7.09-12.21ZM384.2 410.48a3.47 3.47 0 1 0 3.47 3.47 3.46 3.46 0 0 0-3.47-3.47ZM396.86 461.33a12.68 12.68 0 0 0-25.34.8h4.72a8 8 0 0 1 8.48-7.95 8.06 8.06 0 0 1 7.43 7.44 8 8 0 0 1-4.46 7.67 10.7 10.7 0 0 0-5.85 9.6v2.78h4.72v-2.78a5.94 5.94 0 0 1 3.21-5.36 12.65 12.65 0 0 0 7.09-12.2ZM384.2 486.73a3.47 3.47 0 1 0 3.47 3.46 3.46 3.46 0 0 0-3.47-3.46ZM396.86 537.57a12.68 12.68 0 0 0-25.34.81h4.72a8 8 0 0 1 8.48-8 8 8 0 0 1 3 15.11 10.67 10.67 0 0 0-5.85 9.59v2.79h4.72v-2.79a5.92 5.92 0 0 1 3.21-5.35 12.68 12.68 0 0 0 7.06-12.16ZM384.2 563a3.47 3.47 0 1 0 3.47 3.46 3.46 3.46 0 0 0-3.47-3.46Z"/><path fill="#ecf0f9" d="M164.09 214.68H330.7v6.39H164.09zM164.09 231.31H330.7v6.39H164.09zM164.09 247.94H330.7v6.39H164.09zM164.09 264.57h119.6v6.39h-119.6zM164.09 290.93H330.7v6.39H164.09zM164.09 307.56H330.7v6.39H164.09zM164.09 324.18H330.7v6.39H164.09zM164.09 340.81h119.6v6.39h-119.6zM164.09 367.17H330.7v6.39H164.09zM164.09 383.8H330.7v6.39H164.09zM164.09 400.43H330.7v6.39H164.09zM164.09 417.06h119.6v6.39h-119.6zM164.09 443.41H330.7v6.39H164.09zM164.09 460.04H330.7v6.39H164.09zM164.09 476.67H330.7v6.39H164.09zM164.09 493.3h119.6v6.39h-119.6zM164.09 519.66H330.7v6.39H164.09zM164.09 536.29H330.7v6.39H164.09zM164.09 552.91H330.7v6.39H164.09zM164.09 569.54h119.6v6.39h-119.6z"/><circle cx="145.09" cy="225.46" r="12.24" fill="#ecf0f9"/><circle cx="145.09" cy="303.17" r="12.24" fill="#ecf0f9"/><circle cx="145.09" cy="379.42" r="12.24" fill="#ecf0f9"/><circle cx="145.09" cy="455.66" r="12.24" fill="#ecf0f9"/><circle cx="145.09" cy="531.9" r="12.24" fill="#ecf0f9"/><path fill="#528036" d="M371.47 907.12s14.2-112.66 73-145.07c-.03 0 16.97 71.3-73 145.07Z"/><path fill="#fff" d="M378 896.45a.56.56 0 0 1-.5-.81l52.33-106.16a.56.56 0 0 1 .76-.25.55.55 0 0 1 .25.75C374.71 903.84 378.55 896.45 378 896.45Z"/><path fill="#fff" d="M394.5 863a.57.57 0 0 1-.56-.56l-.25-19.16a.56.56 0 0 1 .56-.57.55.55 0 0 1 .57.55l.25 19.17a.57.57 0 0 1-.57.57ZM405.15 841.38a.56.56 0 0 1-.37-1l17.58-15.5a.56.56 0 1 1 .75.84c-18.84 16.63-17.64 15.66-17.96 15.66ZM417.21 816.93a.57.57 0 0 1-.55-.44l-2.86-12.36a.56.56 0 0 1 1.09-.25l2.87 12.36a.57.57 0 0 1-.55.69Z"/><path fill="#8cb55a" d="M371.85 908.16s-32.53-109.78 9.3-158c0 .02 44.92 61.61-9.3 158Z"/><path fill="#fff" d="m372.84 895.63 5.81-115.28a.56.56 0 0 1 .59-.53.55.55 0 0 1 .53.59L374 895.69a.56.56 0 0 1-1.16-.06Z"/><path fill="#fff" d="M375.23 859.88a.56.56 0 0 1-.51-.34l-8-17.87a.56.56 0 0 1 .28-.74.57.57 0 0 1 .75.28l8 17.87a.57.57 0 0 1-.52.8ZM376.41 836.42a.57.57 0 0 1-.5-.82l10.16-19.85a.56.56 0 0 1 .76-.25.57.57 0 0 1 .24.76l-10.15 19.86a.57.57 0 0 1-.51.3ZM377.75 809.86a.58.58 0 0 1-.46-.23l-7.7-10.7a.56.56 0 1 1 .91-.66l7.71 10.7a.56.56 0 0 1-.46.89Z"/><path fill="#457427" d="M384.7 932.89s-82.13-88.33-67.1-147.16c0 0 70.4 40.03 67.1 147.16Z"/><path fill="#fff" d="M380.14 921.53c-.56 0 3.12 7.47-50.37-107.37a.56.56 0 1 1 1-.48l49.86 107.05a.57.57 0 0 1-.49.8Z"/><path fill="#fff" d="M364.42 887.77c-.32 0 .71.78-16.23-13.53a.58.58 0 0 1-.06-.8.56.56 0 0 1 .79-.06l15.86 13.4a.56.56 0 0 1-.36.99ZM354.27 866a.57.57 0 0 1-.56-.56l-.25-21.71a.57.57 0 0 1 .56-.57.58.58 0 0 1 .57.56l.25 21.71a.57.57 0 0 1-.57.57ZM342.79 841.34c-.23 0 .52.38-12.42-7.07a.56.56 0 1 1 .56-1l12.14 7a.57.57 0 0 1-.28 1.07Z"/><path fill="#85523b" d="m430.14 882.71-31.24 89.77h-46.48l-31.23-89.77h108.95z"/><path fill="#c47a4a" d="M321.19 882.71h109.15v15.19H321.19z"/></g></svg>