<svg xmlns="http://www.w3.org/2000/svg" viewBox="0 0 3546.3 4000">
  <path fill="#a2ceab" d="M3065,2447.4V3496c0,21.4-17.3,38.7-38.7,38.7l0,0c-21.4,0-38.7-17.3-38.7-38.7V2447.4H3065z"/>
  <path fill="#a2ceab" d="M3394.2,2014.2v1048.6c0,21.4-17.3,38.7-38.7,38.7l0,0c-21.4,0-38.7-17.3-38.7-38.7V2014.2H3394.2z"/><path fill="#59a566" d="M3376.2,2761.1L3376.2,2761.1c-17.1-12.8-41.3-9.2-54.1,7.9L3065,3113.6l0,129.3l319.1-427.8
		C3396.9,2798,3393.4,2773.8,3376.2,2761.1z"/><polygon fill="#59a566" points="3107.7 2620.4 680.4 2620.4 680.4 2531.5 1119 2033 3546.3 1944.1 3546.3 2033"/><polygon fill="#a2ceab" points="3107.7 2531.5 680.4 2531.5 1119 1944.1 3546.3 1944.1"/><path fill="#fff" d="M3107.7,2533.8H699.5c-2,0-3.7-1.6-3.7-3.7c0-2,1.6-3.7,3.7-3.7h2406.4l419.4-557.7c1.2-1.6,3.5-1.9,5.1-0.7
			c1.6,1.2,1.9,3.5,0.7,5.1l-420.5,559.1C3109.9,2533.3,3108.8,2533.8,3107.7,2533.8z"/><path fill="#fff" d="M3107.7,2608.7c-1,0-2-0.4-2.7-1.2c-17.5-19.6-16.6-40.3-12.7-54.2c4.1-14.8,12.2-25,12.6-25.4
			c1.3-1.6,3.6-1.8,5.2-0.5c1.6,1.3,1.8,3.6,0.5,5.2l0,0c-0.1,0.1-7.6,9.6-11.3,23c-4.8,17.6-1.1,33.4,11.2,47.1
			c1.3,1.5,1.2,3.8-0.3,5.2C3109.4,2608.3,3108.5,2608.7,3107.7,2608.7z"/><path fill="#666" d="M3138.1,1994.8H1929.3c-24.4,0-43.6-19.8-42.8-44.2l24.2-747.2c0.8-24.4,16-32.5,40.4-32.5h1199.6
						c24.4,0,48,13.5,48,54.4l-23,710.4C3175,1960,3162.5,1994.8,3138.1,1994.8z"/><path fill="#fff" d="M3139.5,1981.8c0,0-0.1,0-0.1,0c-2-0.1-3.6-1.8-3.5-3.8l24.1-742.6c0.3-9.3-3-18-9.4-24.5
						c-6.3-6.5-14.9-10.1-24.2-10.1H1929.6c-2,0-3.7-1.6-3.7-3.7s1.6-3.7,3.7-3.7h1196.8c11.3,0,21.7,4.4,29.4,12.4
						c7.7,8,11.8,18.6,11.4,29.8l-24.1,742.6C3143.1,1980.2,3141.5,1981.8,3139.5,1981.8z"/><path fill="#59a566" d="M3089.6,1944.9H1939.5l23.2-699.7c0-1.2,1.1-2.3,2.3-2.3h1150.1l-23.2,699.7
				C3091.9,1943.9,3090.8,1944.9,3089.6,1944.9z"/><path fill="#474747" d="M1590.7,2420.5l268.8-389.6c28.6-39.7,33.4-36.3,106.1-36.3h1170.5c45.9,0,26.7,44.8,2.7,78.5l-257.9,383.4
				c-28.6,39.7-29.4,35.8-107.5,35.8H1610.7C1571,2492.3,1562.1,2460.2,1590.7,2420.5z"/><path fill="#fff" d="M2829.5,2453.3H1600c-2,0-3.7-1.6-3.7-3.7s1.6-3.7,3.7-3.7h1227.6l299.4-433.9c1.2-1.7,3.4-2.1,5.1-0.9
				c1.7,1.1,2.1,3.4,0.9,5.1l-300.5,435.5C2831.8,2452.7,2830.7,2453.3,2829.5,2453.3z"/><path fill="#fff" d="M2953.2,2146.1H1894.8c-1.8,0-3.3-1.5-3.3-3.3s1.5-3.3,3.3-3.3h1058.4c1.8,0,3.3,1.5,3.3,3.3
					S2955,2146.1,2953.2,2146.1z"/><path fill="#fff" d="M2897.8,2262.1H1822.1c-1.8,0-3.3-1.5-3.3-3.3s1.5-3.3,3.3-3.3h1075.7c1.8,0,3.3,1.5,3.3,3.3
					S2899.6,2262.1,2897.8,2262.1z"/><path fill="#fff" d="M3007.5,2088.7H1885.9c-1.8,0-3.3-1.5-3.3-3.3s1.5-3.3,3.3-3.3h1121.6c1.8,0,3.3,1.5,3.3,3.3
					S3009.3,2088.7,3007.5,2088.7z"/><path fill="#fff" d="M2709.6,2086.5c-0.7,0-1.4-0.2-2-0.7c-1.5-1.1-1.8-3.2-0.7-4.6l28.4-38c1.1-1.5,3.2-1.8,4.6-0.7
					c1.5,1.1,1.8,3.2,0.7,4.6l-28.4,38C2711.6,2086,2710.6,2086.5,2709.6,2086.5z"/><path fill="#fff" d="M2627,2086.5c-0.7,0-1.4-0.2-2-0.7c-1.5-1.1-1.8-3.2-0.7-4.6l28.4-38c1.1-1.5,3.2-1.8,4.6-0.7
					c1.5,1.1,1.8,3.2,0.7,4.6l-28.4,38C2629,2086,2628,2086.5,2627,2086.5z"/><path fill="#fff" d="M2544.4,2086.5c-0.7,0-1.4-0.2-2-0.7c-1.5-1.1-1.8-3.2-0.7-4.6l28.4-38c1.1-1.5,3.2-1.8,4.6-0.7
					c1.5,1.1,1.8,3.2,0.7,4.6l-28.4,38C2546.4,2086,2545.4,2086.5,2544.4,2086.5z"/><path fill="#fff" d="M2461.8,2086.5c-0.7,0-1.4-0.2-2-0.7c-1.5-1.1-1.8-3.2-0.7-4.6l28.4-38c1.1-1.5,3.2-1.8,4.6-0.7
					c1.5,1.1,1.8,3.2,0.7,4.6l-28.4,38C2463.8,2086,2462.8,2086.5,2461.8,2086.5z"/><path fill="#fff" d="M2379.1,2086.5c-0.7,0-1.4-0.2-2-0.7c-1.5-1.1-1.8-3.2-0.7-4.6l28.4-38c1.1-1.5,3.2-1.8,4.6-0.7
					c1.5,1.1,1.8,3.2,0.7,4.6l-28.4,38C2381.1,2086,2380.1,2086.5,2379.1,2086.5z"/><path fill="#fff" d="M2296.5,2086.5c-0.7,0-1.4-0.2-2-0.7c-1.5-1.1-1.8-3.2-0.7-4.6l28.4-38c1.1-1.5,3.2-1.8,4.6-0.7
					c1.5,1.1,1.8,3.2,0.7,4.6l-28.4,38C2298.5,2086,2297.5,2086.5,2296.5,2086.5z"/><path fill="#fff" d="M2213.9,2086.5c-0.7,0-1.4-0.2-2-0.7c-1.5-1.1-1.8-3.2-0.7-4.6l28.4-38c1.1-1.5,3.2-1.8,4.6-0.7
					c1.5,1.1,1.8,3.2,0.7,4.6l-28.4,38C2215.9,2086,2214.9,2086.5,2213.9,2086.5z"/><path fill="#fff" d="M2794.7,2086.5c-0.7,0-1.4-0.2-2-0.7c-1.5-1.1-1.8-3.2-0.7-4.6l28.4-38c1.1-1.5,3.2-1.8,4.6-0.7
					c1.5,1.1,1.8,3.2,0.7,4.6l-28.4,38C2796.7,2086,2795.7,2086.5,2794.7,2086.5z"/><path fill="#fff" d="M2879.8,2086.5c-0.7,0-1.4-0.2-2-0.7c-1.5-1.1-1.8-3.2-0.7-4.6l28.4-38c1.1-1.5,3.2-1.8,4.6-0.7
					c1.5,1.1,1.8,3.2,0.7,4.6l-28.4,38C2881.8,2086,2880.8,2086.5,2879.8,2086.5z"/><path fill="#fff" d="M2978.1,2086.5c-0.7,0-1.4-0.2-2-0.7c-1.5-1.1-1.8-3.2-0.7-4.6l28.4-38c1.1-1.5,3.2-1.8,4.6-0.7
					c1.5,1.1,1.8,3.2,0.7,4.6l-28.4,38C2980.1,2086,2979.1,2086.5,2978.1,2086.5z"/><path fill="#fff" d="M2144.5,2086.5c-0.7,0-1.4-0.2-2-0.7c-1.5-1.1-1.8-3.2-0.7-4.6l28.4-38c1.1-1.5,3.2-1.8,4.6-0.7
					c1.5,1.1,1.8,3.2,0.7,4.6l-28.4,38C2146.5,2086,2145.5,2086.5,2144.5,2086.5z"/><path fill="#fff" d="M2043.9,2086.5c-0.7,0-1.4-0.2-2-0.7c-1.5-1.1-1.8-3.2-0.7-4.6l28.4-38c1.1-1.5,3.2-1.8,4.6-0.7
					c1.5,1.1,1.8,3.2,0.7,4.6l-28.4,38C2045.9,2086,2044.9,2086.5,2043.9,2086.5z"/><path fill="#fff" d="M1943.2,2086.5c-0.7,0-1.4-0.2-2-0.7c-1.5-1.1-1.8-3.2-0.7-4.6l28.4-38c1.1-1.5,3.2-1.8,4.6-0.7
					c1.5,1.1,1.8,3.2,0.7,4.6l-28.4,38C1945.2,2086,1944.2,2086.5,1943.2,2086.5z"/><path fill="#fff" d="M1951.5,2144.1c-0.7,0-1.4-0.2-2-0.7c-1.5-1.1-1.7-3.2-0.6-4.6l41.3-54.2c1.1-1.5,3.2-1.7,4.6-0.6
					c1.5,1.1,1.7,3.2,0.6,4.6l-41.3,54.2C1953.5,2143.7,1952.5,2144.1,1951.5,2144.1z"/><path fill="#fff" d="M2039.4,2144.1c-0.7,0-1.4-0.2-2-0.7c-1.5-1.1-1.7-3.2-0.6-4.6l41.3-54.2c1.1-1.5,3.2-1.7,4.6-0.6
					c1.5,1.1,1.7,3.2,0.6,4.6l-41.3,54.2C2041.4,2143.7,2040.4,2144.1,2039.4,2144.1z"/><path fill="#fff" d="M2123.4,2144.1c-0.7,0-1.4-0.2-2-0.7c-1.5-1.1-1.7-3.2-0.6-4.6l41.3-54.2c1.1-1.5,3.2-1.7,4.6-0.6
					c1.5,1.1,1.7,3.2,0.6,4.6l-41.3,54.2C2125.4,2143.7,2124.4,2144.1,2123.4,2144.1z"/><path fill="#fff" d="M2207.4,2144.1c-0.7,0-1.4-0.2-2-0.7c-1.5-1.1-1.7-3.2-0.6-4.6l41.3-54.2c1.1-1.5,3.2-1.7,4.6-0.6
					c1.5,1.1,1.7,3.2,0.6,4.6l-41.3,54.2C2209.4,2143.7,2208.4,2144.1,2207.4,2144.1z"/><path fill="#fff" d="M2291.4,2144.1c-0.7,0-1.4-0.2-2-0.7c-1.5-1.1-1.7-3.2-0.6-4.6l41.3-54.2c1.1-1.5,3.2-1.7,4.6-0.6
					c1.5,1.1,1.7,3.2,0.6,4.6l-41.3,54.2C2293.4,2143.7,2292.4,2144.1,2291.4,2144.1z"/><path fill="#fff" d="M2375.5,2144.1c-0.7,0-1.4-0.2-2-0.7c-1.5-1.1-1.7-3.2-0.6-4.6l41.3-54.2c1.1-1.5,3.2-1.7,4.6-0.6
					c1.5,1.1,1.7,3.2,0.6,4.6l-41.3,54.2C2377.4,2143.7,2376.5,2144.1,2375.5,2144.1z"/><path fill="#fff" d="M2459.5,2144.1c-0.7,0-1.4-0.2-2-0.7c-1.5-1.1-1.7-3.2-0.6-4.6l41.3-54.2c1.1-1.5,3.2-1.7,4.6-0.6
					c1.5,1.1,1.7,3.2,0.6,4.6l-41.3,54.2C2461.5,2143.7,2460.5,2144.1,2459.5,2144.1z"/><path fill="#fff" d="M2543.5,2144.1c-0.7,0-1.4-0.2-2-0.7c-1.5-1.1-1.7-3.2-0.6-4.6l41.3-54.2c1.1-1.5,3.2-1.7,4.6-0.6
					c1.5,1.1,1.7,3.2,0.6,4.6l-41.3,54.2C2545.5,2143.7,2544.5,2144.1,2543.5,2144.1z"/><path fill="#fff" d="M2627.5,2144.1c-0.7,0-1.4-0.2-2-0.7c-1.5-1.1-1.7-3.2-0.6-4.6l41.3-54.2c1.1-1.5,3.2-1.7,4.6-0.6
					c1.5,1.1,1.7,3.2,0.6,4.6l-41.3,54.2C2629.5,2143.7,2628.5,2144.1,2627.5,2144.1z"/><path fill="#fff" d="M2711.5,2144.1c-0.7,0-1.4-0.2-2-0.7c-1.5-1.1-1.7-3.2-0.6-4.6l41.3-54.2c1.1-1.5,3.2-1.7,4.6-0.6
					c1.5,1.1,1.7,3.2,0.6,4.6l-41.3,54.2C2713.5,2143.7,2712.5,2144.1,2711.5,2144.1z"/><path fill="#fff" d="M2795.5,2144.1c-0.7,0-1.4-0.2-2-0.7c-1.5-1.1-1.7-3.2-0.6-4.6l41.3-54.2c1.1-1.5,3.2-1.7,4.6-0.6
					c1.5,1.1,1.7,3.2,0.6,4.6l-41.3,54.2C2797.5,2143.7,2796.5,2144.1,2795.5,2144.1z"/><path fill="#fff" d="M2896.2,2144.1c-0.7,0-1.4-0.2-2-0.7c-1.5-1.1-1.7-3.2-0.6-4.6l41.3-54.2c1.1-1.5,3.2-1.7,4.6-0.6
					c1.5,1.1,1.7,3.2,0.6,4.6l-41.3,54.2C2898.2,2143.7,2897.2,2144.1,2896.2,2144.1z"/><path fill="#fff" d="M2714.9,2202.6c-0.7,0-1.4-0.2-2-0.7c-1.5-1.1-1.8-3.2-0.7-4.6l41.7-55.9c1.1-1.5,3.2-1.8,4.6-0.7
					s1.8,3.2,0.7,4.6l-41.7,55.9C2716.9,2202.2,2715.9,2202.6,2714.9,2202.6z"/><path fill="#fff" d="M2809.8,2203.5c-0.7,0-1.3-0.2-1.9-0.6c-1.5-1.1-1.9-3.1-0.8-4.6l40-56.8c1.1-1.5,3.1-1.9,4.6-0.8
					c1.5,1.1,1.9,3.1,0.8,4.6l-40,56.8C2811.9,2203,2810.9,2203.5,2809.8,2203.5z"/><path fill="#fff" d="M2633.7,2203.5c-0.7,0-1.3-0.2-1.9-0.6c-1.5-1.1-1.9-3.1-0.8-4.6l40-56.8c1.1-1.5,3.1-1.9,4.6-0.8
					c1.5,1.1,1.9,3.1,0.8,4.6l-40,56.8C2635.8,2203,2634.8,2203.5,2633.7,2203.5z"/><path fill="#fff" d="M2549.1,2203.5c-0.7,0-1.3-0.2-1.9-0.6c-1.5-1.1-1.9-3.1-0.8-4.6l40-56.8c1.1-1.5,3.1-1.9,4.6-0.8
					c1.5,1.1,1.9,3.1,0.8,4.6l-40,56.8C2551.2,2203,2550.2,2203.5,2549.1,2203.5z"/><path fill="#fff" d="M2464.5,2203.5c-0.7,0-1.3-0.2-1.9-0.6c-1.5-1.1-1.9-3.1-0.8-4.6l40-56.8c1.1-1.5,3.1-1.9,4.6-0.8
					c1.5,1.1,1.9,3.1,0.8,4.6l-40,56.8C2466.6,2203,2465.6,2203.5,2464.5,2203.5z"/><path fill="#fff" d="M2379.9,2203.5c-0.7,0-1.3-0.2-1.9-0.6c-1.5-1.1-1.9-3.1-0.8-4.6l40-56.8c1.1-1.5,3.1-1.9,4.6-0.8
					c1.5,1.1,1.9,3.1,0.8,4.6l-40,56.8C2382,2203,2380.9,2203.5,2379.9,2203.5z"/><path fill="#fff" d="M2295.3,2203.5c-0.7,0-1.3-0.2-1.9-0.6c-1.5-1.1-1.9-3.1-0.8-4.6l40-56.8c1.1-1.5,3.1-1.9,4.6-0.8
					c1.5,1.1,1.9,3.1,0.8,4.6l-40,56.8C2297.4,2203,2296.3,2203.5,2295.3,2203.5z"/><path fill="#fff" d="M2210.7,2203.5c-0.7,0-1.3-0.2-1.9-0.6c-1.5-1.1-1.9-3.1-0.8-4.6l40-56.8c1.1-1.5,3.1-1.9,4.6-0.8
					c1.5,1.1,1.9,3.1,0.8,4.6l-40,56.8C2212.8,2203,2211.7,2203.5,2210.7,2203.5z"/><path fill="#fff" d="M2126.1,2203.5c-0.7,0-1.3-0.2-1.9-0.6c-1.5-1.1-1.9-3.1-0.8-4.6l40-56.8c1.1-1.5,3.1-1.9,4.6-0.8
					c1.5,1.1,1.9,3.1,0.8,4.6l-40,56.8C2128.1,2203,2127.1,2203.5,2126.1,2203.5z"/><path fill="#fff" d="M2041.5,2203.5c-0.7,0-1.3-0.2-1.9-0.6c-1.5-1.1-1.9-3.1-0.8-4.6l40-56.8c1.1-1.5,3.1-1.9,4.6-0.8
					c1.5,1.1,1.9,3.1,0.8,4.6l-40,56.8C2043.5,2203,2042.5,2203.5,2041.5,2203.5z"/><path fill="#fff" d="M1956.9,2203.5c-0.7,0-1.3-0.2-1.9-0.6c-1.5-1.1-1.9-3.1-0.8-4.6l40-56.8c1.1-1.5,3.1-1.9,4.6-0.8
					c1.5,1.1,1.9,3.1,0.8,4.6l-40,56.8C1958.9,2203,1957.9,2203.5,1956.9,2203.5z"/><path fill="#fff" d="M2743.8,2261.3c-0.7,0-1.4-0.2-2-0.7c-1.5-1.1-1.7-3.2-0.6-4.6l41.3-54.2c1.1-1.5,3.2-1.7,4.6-0.6
					c1.5,1.1,1.7,3.2,0.6,4.6l-41.3,54.2C2745.8,2260.9,2744.8,2261.3,2743.8,2261.3z"/><path fill="#fff" d="M2838,2261.3c-0.7,0-1.4-0.2-2-0.7c-1.5-1.1-1.7-3.2-0.6-4.6l41.3-54.2c1.1-1.5,3.2-1.7,4.6-0.6
					c1.5,1.1,1.7,3.2,0.6,4.6l-41.3,54.2C2840,2260.9,2839,2261.3,2838,2261.3z"/><path fill="#fff" d="M1964.6,2261.3c-0.7,0-1.4-0.2-2-0.7c-1.5-1.1-1.7-3.2-0.6-4.6l41.3-54.2c1.1-1.5,3.2-1.7,4.6-0.6
					c1.5,1.1,1.7,3.2,0.6,4.6l-41.3,54.2C1966.6,2260.9,1965.6,2261.3,1964.6,2261.3z"/><path fill="#fff" d="M2048.4,2261.3c-0.7,0-1.4-0.2-2-0.7c-1.5-1.1-1.7-3.2-0.6-4.6l41.3-54.2c1.1-1.5,3.2-1.7,4.6-0.6
					c1.5,1.1,1.7,3.2,0.6,4.6l-41.3,54.2C2050.4,2260.9,2049.4,2261.3,2048.4,2261.3z"/><path fill="#fff" d="M3042.1,2045.5h-1124c-1.8,0-3.3-1.5-3.3-3.3s1.5-3.3,3.3-3.3h1124c1.8,0,3.3,1.5,3.3,3.3
					S3044,2045.5,3042.1,2045.5z"/><path fill="#fff" d="M2935.4,2206.1H1804.3c-1.8,0-3.3-1.5-3.3-3.3s1.5-3.3,3.3-3.3h1131.1c1.8,0,3.3,1.5,3.3,3.3
					S2937.2,2206.1,2935.4,2206.1z"/><path fill="#fff" d="M1868.8,2261.3c-0.7,0-1.4-0.2-2-0.7c-1.5-1.1-1.7-3.2-0.6-4.6l41.3-54.2c1.1-1.5,3.2-1.7,4.6-0.6
					c1.5,1.1,1.7,3.2,0.6,4.6l-41.3,54.2C1870.8,2260.9,1869.8,2261.3,1868.8,2261.3z"/><path fill="#fff" d="M2419.4,2414.1h-293.6c-1.2,0-2.3-0.7-2.9-1.8c-0.6-1.1-0.5-2.4,0.2-3.4l102.7-151.5c1-1.5,3.1-1.9,4.6-0.9
					c1.5,1,1.9,3.1,0.9,4.6l-99.2,146.3h285.6l101.7-150.1c1-1.5,3.1-1.9,4.6-0.9c1.5,1,1.9,3.1,0.9,4.6l-102.7,151.5
					C2421.6,2413.5,2420.5,2414.1,2419.4,2414.1z"/><path fill="#fff" d="M2953.2,2146.5H1894.8c-2,0-3.7-1.6-3.7-3.7s1.6-3.7,3.7-3.7h1058.4c2,0,3.7,1.6,3.7,3.7
					S2955.2,2146.5,2953.2,2146.5z"/><path fill="#fff" d="M2897.8,2262.4H1822.1c-2,0-3.7-1.6-3.7-3.7s1.6-3.7,3.7-3.7h1075.7c2,0,3.7,1.6,3.7,3.7
					S2899.8,2262.4,2897.8,2262.4z"/><path fill="#fff" d="M3007.5,2089H1885.9c-2,0-3.7-1.6-3.7-3.7s1.6-3.7,3.7-3.7h1121.6c2,0,3.7,1.6,3.7,3.7
					S3009.5,2089,3007.5,2089z"/><path fill="#fff" d="M2709.6,2086.8c-0.8,0-1.5-0.2-2.2-0.7c-1.6-1.2-2-3.5-0.7-5.1l28.4-38c1.2-1.6,3.5-2,5.1-0.7
					c1.6,1.2,2,3.5,0.7,5.1l-28.4,38C2711.8,2086.3,2710.7,2086.8,2709.6,2086.8z"/><path fill="#fff" d="M2627,2086.8c-0.8,0-1.5-0.2-2.2-0.7c-1.6-1.2-2-3.5-0.7-5.1l28.4-38c1.2-1.6,3.5-2,5.1-0.7
					c1.6,1.2,2,3.5,0.7,5.1l-28.4,38C2629.2,2086.3,2628.1,2086.8,2627,2086.8z"/><path fill="#fff" d="M2544.4,2086.8c-0.8,0-1.5-0.2-2.2-0.7c-1.6-1.2-2-3.5-0.7-5.1l28.4-38c1.2-1.6,3.5-2,5.1-0.7
					c1.6,1.2,2,3.5,0.7,5.1l-28.4,38C2546.6,2086.3,2545.5,2086.8,2544.4,2086.8z"/><path fill="#fff" d="M2461.8,2086.8c-0.8,0-1.5-0.2-2.2-0.7c-1.6-1.2-2-3.5-0.7-5.1l28.4-38c1.2-1.6,3.5-2,5.1-0.7
					c1.6,1.2,2,3.5,0.7,5.1l-28.4,38C2464,2086.3,2462.9,2086.8,2461.8,2086.8z"/><path fill="#fff" d="M2379.1,2086.8c-0.8,0-1.5-0.2-2.2-0.7c-1.6-1.2-2-3.5-0.7-5.1l28.4-38c1.2-1.6,3.5-2,5.1-0.7
					c1.6,1.2,2,3.5,0.7,5.1l-28.4,38C2381.4,2086.3,2380.2,2086.8,2379.1,2086.8z"/><path fill="#fff" d="M2296.5,2086.8c-0.8,0-1.5-0.2-2.2-0.7c-1.6-1.2-2-3.5-0.7-5.1l28.4-38c1.2-1.6,3.5-2,5.1-0.7
					c1.6,1.2,2,3.5,0.7,5.1l-28.4,38C2298.7,2086.3,2297.6,2086.8,2296.5,2086.8z"/><path fill="#fff" d="M2213.9,2086.8c-0.8,0-1.5-0.2-2.2-0.7c-1.6-1.2-2-3.5-0.7-5.1l28.4-38c1.2-1.6,3.5-2,5.1-0.7
					c1.6,1.2,2,3.5,0.7,5.1l-28.4,38C2216.1,2086.3,2215,2086.8,2213.9,2086.8z"/><path fill="#fff" d="M2794.7,2086.8c-0.8,0-1.5-0.2-2.2-0.7c-1.6-1.2-2-3.5-0.7-5.1l28.4-38c1.2-1.6,3.5-2,5.1-0.7
					c1.6,1.2,2,3.5,0.7,5.1l-28.4,38C2796.9,2086.3,2795.8,2086.8,2794.7,2086.8z"/><path fill="#fff" d="M2879.8,2086.8c-0.8,0-1.5-0.2-2.2-0.7c-1.6-1.2-2-3.5-0.7-5.1l28.4-38c1.2-1.6,3.5-2,5.1-0.7
					c1.6,1.2,2,3.5,0.7,5.1l-28.4,38C2882,2086.3,2880.9,2086.8,2879.8,2086.8z"/><path fill="#fff" d="M2978.1,2086.8c-0.8,0-1.5-0.2-2.2-0.7c-1.6-1.2-2-3.5-0.7-5.1l28.4-38c1.2-1.6,3.5-2,5.1-0.7
					c1.6,1.2,2,3.5,0.7,5.1l-28.4,38C2980.4,2086.3,2979.3,2086.8,2978.1,2086.8z"/><path fill="#fff" d="M2144.5,2086.8c-0.8,0-1.5-0.2-2.2-0.7c-1.6-1.2-2-3.5-0.7-5.1l28.4-38c1.2-1.6,3.5-2,5.1-0.7
					c1.6,1.2,2,3.5,0.7,5.1l-28.4,38C2146.7,2086.3,2145.6,2086.8,2144.5,2086.8z"/><path fill="#fff" d="M2043.9,2086.8c-0.8,0-1.5-0.2-2.2-0.7c-1.6-1.2-2-3.5-0.7-5.1l28.4-38c1.2-1.6,3.5-2,5.1-0.7
					c1.6,1.2,2,3.5,0.7,5.1l-28.4,38C2046.1,2086.3,2045,2086.8,2043.9,2086.8z"/><path fill="#fff" d="M1943.2,2086.8c-0.8,0-1.5-0.2-2.2-0.7c-1.6-1.2-2-3.5-0.7-5.1l28.4-38c1.2-1.6,3.5-2,5.1-0.7
					c1.6,1.2,2,3.5,0.7,5.1l-28.4,38C1945.4,2086.3,1944.3,2086.8,1943.2,2086.8z"/><path fill="#fff" d="M1951.5,2144.5c-0.8,0-1.6-0.2-2.2-0.8c-1.6-1.2-1.9-3.5-0.7-5.1l41.3-54.2c1.2-1.6,3.5-1.9,5.1-0.7
					c1.6,1.2,1.9,3.5,0.7,5.1l-41.3,54.2C1953.7,2144,1952.6,2144.5,1951.5,2144.5z"/><path fill="#fff" d="M2039.4,2144.5c-0.8,0-1.6-0.2-2.2-0.8c-1.6-1.2-1.9-3.5-0.7-5.1l41.3-54.2c1.2-1.6,3.5-1.9,5.1-0.7
					c1.6,1.2,1.9,3.5,0.7,5.1l-41.3,54.2C2041.6,2144,2040.5,2144.5,2039.4,2144.5z"/><path fill="#fff" d="M2123.4,2144.5c-0.8,0-1.6-0.2-2.2-0.8c-1.6-1.2-1.9-3.5-0.7-5.1l41.3-54.2c1.2-1.6,3.5-1.9,5.1-0.7
					c1.6,1.2,1.9,3.5,0.7,5.1l-41.3,54.2C2125.6,2144,2124.5,2144.5,2123.4,2144.5z"/><path fill="#fff" d="M2207.4,2144.5c-0.8,0-1.6-0.2-2.2-0.8c-1.6-1.2-1.9-3.5-0.7-5.1l41.3-54.2c1.2-1.6,3.5-1.9,5.1-0.7
					c1.6,1.2,1.9,3.5,0.7,5.1l-41.3,54.2C2209.6,2144,2208.5,2144.5,2207.4,2144.5z"/><path fill="#fff" d="M2291.4,2144.5c-0.8,0-1.6-0.2-2.2-0.8c-1.6-1.2-1.9-3.5-0.7-5.1l41.3-54.2c1.2-1.6,3.5-1.9,5.1-0.7
					c1.6,1.2,1.9,3.5,0.7,5.1l-41.3,54.2C2293.6,2144,2292.5,2144.5,2291.4,2144.5z"/><path fill="#fff" d="M2375.5,2144.5c-0.8,0-1.6-0.2-2.2-0.8c-1.6-1.2-1.9-3.5-0.7-5.1l41.3-54.2c1.2-1.6,3.5-1.9,5.1-0.7
					c1.6,1.2,1.9,3.5,0.7,5.1l-41.3,54.2C2377.7,2144,2376.6,2144.5,2375.5,2144.5z"/><path fill="#fff" d="M2459.5,2144.5c-0.8,0-1.6-0.2-2.2-0.8c-1.6-1.2-1.9-3.5-0.7-5.1l41.3-54.2c1.2-1.6,3.5-1.9,5.1-0.7
					c1.6,1.2,1.9,3.5,0.7,5.1l-41.3,54.2C2461.7,2144,2460.6,2144.5,2459.5,2144.5z"/><path fill="#fff" d="M2543.5,2144.5c-0.8,0-1.6-0.2-2.2-0.8c-1.6-1.2-1.9-3.5-0.7-5.1l41.3-54.2c1.2-1.6,3.5-1.9,5.1-0.7
					c1.6,1.2,1.9,3.5,0.7,5.1l-41.3,54.2C2545.7,2144,2544.6,2144.5,2543.5,2144.5z"/><path fill="#fff" d="M2627.5,2144.5c-0.8,0-1.6-0.2-2.2-0.8c-1.6-1.2-1.9-3.5-0.7-5.1l41.3-54.2c1.2-1.6,3.5-1.9,5.1-0.7
					c1.6,1.2,1.9,3.5,0.7,5.1l-41.3,54.2C2629.7,2144,2628.6,2144.5,2627.5,2144.5z"/><path fill="#fff" d="M2711.5,2144.5c-0.8,0-1.6-0.2-2.2-0.8c-1.6-1.2-1.9-3.5-0.7-5.1l41.3-54.2c1.2-1.6,3.5-1.9,5.1-0.7
					c1.6,1.2,1.9,3.5,0.7,5.1l-41.3,54.2C2713.7,2144,2712.6,2144.5,2711.5,2144.5z"/><path fill="#fff" d="M2795.5,2144.5c-0.8,0-1.6-0.2-2.2-0.8c-1.6-1.2-1.9-3.5-0.7-5.1l41.3-54.2c1.2-1.6,3.5-1.9,5.1-0.7
					c1.6,1.2,1.9,3.5,0.7,5.1l-41.3,54.2C2797.7,2144,2796.6,2144.5,2795.5,2144.5z"/><path fill="#fff" d="M2896.2,2144.5c-0.8,0-1.6-0.2-2.2-0.8c-1.6-1.2-1.9-3.5-0.7-5.1l41.3-54.2c1.2-1.6,3.5-1.9,5.1-0.7
					c1.6,1.2,1.9,3.5,0.7,5.1l-41.3,54.2C2898.4,2144,2897.3,2144.5,2896.2,2144.5z"/><path fill="#fff" d="M2714.9,2203c-0.8,0-1.5-0.2-2.2-0.7c-1.6-1.2-2-3.5-0.7-5.1l41.7-55.9c1.2-1.6,3.5-2,5.1-0.7
					c1.6,1.2,2,3.5,0.7,5.1l-41.7,55.9C2717.1,2202.5,2716,2203,2714.9,2203z"/><path fill="#fff" d="M2809.8,2203.9c-0.7,0-1.5-0.2-2.1-0.7c-1.7-1.2-2-3.5-0.9-5.1l40-56.8c1.2-1.7,3.5-2,5.1-0.9
					s2,3.5,0.9,5.1l-40,56.8C2812.1,2203.3,2811,2203.9,2809.8,2203.9z"/><path fill="#fff" d="M2633.7,2203.9c-0.7,0-1.5-0.2-2.1-0.7c-1.7-1.2-2-3.5-0.9-5.1l40-56.8c1.2-1.7,3.5-2,5.1-0.9
					s2,3.5,0.9,5.1l-40,56.8C2636,2203.3,2634.9,2203.9,2633.7,2203.9z"/><path fill="#fff" d="M2549.1,2203.9c-0.7,0-1.5-0.2-2.1-0.7c-1.7-1.2-2-3.5-0.9-5.1l40-56.8c1.2-1.7,3.5-2,5.1-0.9
					s2,3.5,0.9,5.1l-40,56.8C2551.4,2203.3,2550.3,2203.9,2549.1,2203.9z"/><path fill="#fff" d="M2464.5,2203.9c-0.7,0-1.5-0.2-2.1-0.7c-1.7-1.2-2-3.5-0.9-5.1l40-56.8c1.2-1.7,3.5-2,5.1-0.9
					c1.7,1.2,2,3.5,0.9,5.1l-40,56.8C2466.8,2203.3,2465.7,2203.9,2464.5,2203.9z"/><path fill="#fff" d="M2379.9,2203.9c-0.7,0-1.5-0.2-2.1-0.7c-1.7-1.2-2-3.5-0.9-5.1l40-56.8c1.2-1.7,3.5-2,5.1-0.9
					s2,3.5,0.9,5.1l-40,56.8C2382.2,2203.3,2381.1,2203.9,2379.9,2203.9z"/><path fill="#fff" d="M2295.3,2203.9c-0.7,0-1.5-0.2-2.1-0.7c-1.7-1.2-2-3.5-0.9-5.1l40-56.8c1.2-1.7,3.5-2,5.1-0.9
					s2,3.5,0.9,5.1l-40,56.8C2297.6,2203.3,2296.4,2203.9,2295.3,2203.9z"/><path fill="#fff" d="M2210.7,2203.9c-0.7,0-1.5-0.2-2.1-0.7c-1.7-1.2-2-3.5-0.9-5.1l40-56.8c1.2-1.7,3.5-2,5.1-0.9
					s2,3.5,0.9,5.1l-40,56.8C2213,2203.3,2211.8,2203.9,2210.7,2203.9z"/><path fill="#fff" d="M2126.1,2203.9c-0.7,0-1.5-0.2-2.1-0.7c-1.7-1.2-2-3.5-0.9-5.1l40-56.8c1.2-1.7,3.5-2,5.1-0.9
					s2,3.5,0.9,5.1l-40,56.8C2128.4,2203.3,2127.2,2203.9,2126.1,2203.9z"/><path fill="#fff" d="M2041.5,2203.9c-0.7,0-1.5-0.2-2.1-0.7c-1.7-1.2-2-3.5-0.9-5.1l40-56.8c1.2-1.7,3.5-2,5.1-0.9
					c1.7,1.2,2,3.5,0.9,5.1l-40,56.8C2043.8,2203.3,2042.6,2203.9,2041.5,2203.9z"/><path fill="#fff" d="M1956.9,2203.9c-0.7,0-1.5-0.2-2.1-0.7c-1.7-1.2-2-3.5-0.9-5.1l40-56.8c1.2-1.7,3.5-2,5.1-0.9
					s2,3.5,0.9,5.1l-40,56.8C1959.2,2203.3,1958,2203.9,1956.9,2203.9z"/><path fill="#fff" d="M2743.8,2261.7c-0.8,0-1.6-0.2-2.2-0.8c-1.6-1.2-1.9-3.5-0.7-5.1l41.3-54.2c1.2-1.6,3.5-1.9,5.1-0.7
					c1.6,1.2,1.9,3.5,0.7,5.1l-41.3,54.2C2746,2261.2,2744.9,2261.7,2743.8,2261.7z"/><path fill="#fff" d="M2838,2261.7c-0.8,0-1.6-0.2-2.2-0.8c-1.6-1.2-1.9-3.5-0.7-5.1l41.3-54.2c1.2-1.6,3.5-1.9,5.1-0.7
					c1.6,1.2,1.9,3.5,0.7,5.1l-41.3,54.2C2840.2,2261.2,2839.1,2261.7,2838,2261.7z"/><path fill="#fff" d="M1964.6,2261.7c-0.8,0-1.6-0.2-2.2-0.8c-1.6-1.2-1.9-3.5-0.7-5.1l41.3-54.2c1.2-1.6,3.5-1.9,5.1-0.7
					c1.6,1.2,1.9,3.5,0.7,5.1l-41.3,54.2C1966.8,2261.2,1965.7,2261.7,1964.6,2261.7z"/><path fill="#fff" d="M2048.4,2261.7c-0.8,0-1.6-0.2-2.2-0.8c-1.6-1.2-1.9-3.5-0.7-5.1l41.3-54.2c1.2-1.6,3.5-1.9,5.1-0.7
					s1.9,3.5,0.7,5.1l-41.3,54.2C2050.6,2261.2,2049.5,2261.7,2048.4,2261.7z"/><path fill="#fff" d="M3042.1,2045.9h-1124c-2,0-3.7-1.6-3.7-3.7s1.6-3.7,3.7-3.7h1124c2,0,3.7,1.6,3.7,3.7
					S3044.2,2045.9,3042.1,2045.9z"/><path fill="#fff" d="M2935.4,2206.4H1804.3c-2,0-3.7-1.6-3.7-3.7s1.6-3.7,3.7-3.7h1131.1c2,0,3.7,1.6,3.7,3.7
					S2937.4,2206.4,2935.4,2206.4z"/><path fill="#fff" d="M1868.8,2261.7c-0.8,0-1.6-0.2-2.2-0.8c-1.6-1.2-1.9-3.5-0.7-5.1l41.3-54.2c1.2-1.6,3.5-1.9,5.1-0.7
					c1.6,1.2,1.9,3.5,0.7,5.1l-41.3,54.2C1871,2261.2,1869.9,2261.7,1868.8,2261.7z"/><path fill="#fff" d="M2419.4,2414.4h-293.6c-1.4,0-2.6-0.8-3.2-1.9c-0.6-1.2-0.6-2.7,0.2-3.8l102.7-151.5c1.1-1.7,3.4-2.1,5.1-1
					c1.7,1.1,2.1,3.4,1,5.1l-98.8,145.8h284.8l101.6-149.9c1.1-1.7,3.4-2.1,5.1-1c1.7,1.1,2.1,3.4,1,5.1l-102.7,151.5
					C2421.8,2413.8,2420.7,2414.4,2419.4,2414.4z"/><g><path fill="#ffffcf" d="M2139.9,1800.3c0,0,14-417,14.9-417h338.9l-13.3,415.5C2313.6,1798.8,2139.9,1800.3,2139.9,1800.3z"/></g><g><path fill="#ffffcf" d="M2534.6,1585.2c0,0,8.4-252,9.2-252h338.9l-7.6,250.5C2708.3,1583.7,2534.6,1585.2,2534.6,1585.2z"/></g><g><path fill="#ffffcf" d="M2523.5,1870.5c0,0,8.4-252,9.2-252h338.9L2864,1869C2697.2,1869,2523.5,1870.5,2523.5,1870.5z"/></g><g><path fill="#a2ceab" d="M917.6,2447.4V3496c0,21.4-17.3,38.7-38.7,38.7h0c-21.4,0-38.7-17.3-38.7-38.7V2447.4H917.6z"/></g><g><path fill="#a2ceab" d="M1246.8,2014.2v1048.6c0,21.4-17.3,38.7-38.7,38.7h0c-21.4,0-38.7-17.3-38.7-38.7V2014.2H1246.8z"/></g><g><path fill="#59a566" d="M1228.8,2761.1L1228.8,2761.1c-17.1-12.8-41.3-9.2-54.1,7.9l-257.2,344.7l0,129.3l319.1-427.8
		C1249.4,2798,1245.9,2773.8,1228.8,2761.1z"/></g><g><path fill="#fcc597" d="M1784,2325.8c189.9,10.5,283.1-12.2,288.8,17.4c2.3,28.1-118.4,24.1-118.8,36.7
		c-0.4,12.6,156.7,41.4,149.4,72.8c-9,39.2-154.4-27.5-158-17.9c-3.6,9.7,158.9,118.3,141.7,140.5c-24.7,32-163.1-93.5-170.6-86.1
		c-7.5,7.4,108.8,114.1,82.2,137.5c-10.2,9-31.4-6.6-68-42c-45.1-43.5-98.4-96.2-98.4-96.2s21.5,103.1-14.5,114.1
		c-20.1,6.2-31.5-38.2-44.2-77.2c-9.9-30.5-18.2-57.4-21.3-67.9c-114.8-30.6-250.9-111.2-397.2-191.3
		c-10.8-112.2-13.8-172.9-13.8-172.9s82.8-10.8,139.5,18.3C1549.4,2146.9,1636.5,2287.5,1784,2325.8z"/></g><g><ellipse cx="999" cy="3801.7" fill="#ff9000" rx="379.9" ry="198.3"/></g><g><path fill="#a2ceab" d="M1038.4,2941.8v829.4c0,21.4-17.3,38.7-38.7,38.7h0c-21.4,0-38.7-17.3-38.7-38.7v-829.4H1038.4z"/></g><g><path fill="#fff" d="M1222.8,2891.2c-1.4,0-2.7-0.8-3.3-2.1l-68.2-141.5c-0.9-1.8-0.1-4,1.7-4.9c1.8-0.9,4-0.1,4.9,1.7l68.2,141.5
		c0.9,1.8,0.1,4-1.7,4.9C1223.8,2891.1,1223.3,2891.2,1222.8,2891.2z"/></g><g><ellipse cx="999" cy="2941.9" fill="#ff9000" rx="545" ry="284.5"/></g><g><ellipse cx="682.2" cy="2254.9" fill="#ff9000" rx="500.1" ry="310.1" transform="rotate(-9.599 682.266 2254.714)"/></g><g><path fill="#fcc597" d="M1556,3316.8c45.2-173.2,137.8-470,137.8-470c54.2-188.1-203.2-111.3-222-8.8
				c-42.9,234.6-39.7,292.2-55.1,440.7L1556,3316.8z"/><path fill="#f05323" d="M1416.1,3273.1c0,0-15.1-132.7,13.1-126.2c55,20.9,130.8,29.6,162.8,35.7s-30.5,120.4-30.5,120.4
				C1561.4,3303.1,1454.6,3295.3,1416.1,3273.1z"/><path fill="#f4efa7" d="M1786.2,3486.7c0,0-2.2,27.5-22.9,37.3c-24,10.5-121.9-8.2-208.9-28.4c-86.9-20.2-186.4-61.2-196.1-71.5
				s1.9-41.4,1.9-41.4s84.8,19.7,213.7,49.7C1702.8,3462.4,1786.2,3486.7,1786.2,3486.7z"/><path fill="#00729f" d="M1529.5,3297.5c0,0-75.9-10-113.4-24.4c-58.4,44.6-55.8,109.5-55.8,109.5s45.6,40.4,200.1,76.4
				s87.3-99.9,46.4-120.6C1566,3317.7,1529.5,3297.5,1529.5,3297.5z"/><path fill="#4b2812" d="M1595.7,3349.9c0,0-26.1-6.1-48.4-11.3c-22.3-5.2-36.2-22.6-17.9-41c18.4-18.4,50.2-16.9,84.3-9
				c34.1,7.9,57.9,24.5,57.9,24.5S1620.4,3310.9,1595.7,3349.9z"/><path fill="#f4efa7" d="M1598.9,3285.6c-31.3-4.3-54,23.1-67.9,46.1c-5.6-4-7.8-8.2-7.8-8.2
						C1536.8,3295,1568.7,3269,1598.9,3285.6z"/><path fill="#f4efa7" d="M1650.4,3301.4c-11.3-7.9-54.8-8.1-84.6,41.7c-7.2-1.7-11-2.6-11-2.6S1594.9,3262.2,1650.4,3301.4z"/><path fill="#f4efa7" d="M1678.2,3313.9c-49.9,1-78.2,36.9-78.2,36.9s-1.4-0.3-11.3-2.6C1628.1,3292.4,1678.2,3313.9,1678.2,3313.9
						z"/><path fill="#f4efa7" d="M1598.9,3285.6c-31.3-4.3-54,23.1-67.9,46.1c-5.6-4-7.8-8.2-7.8-8.2
						C1536.8,3295,1568.7,3269,1598.9,3285.6z"/><path fill="#f4efa7" d="M1650.4,3301.4c-11.3-7.9-54.8-8.1-84.6,41.7c-7.2-1.7-11-2.6-11-2.6S1594.9,3262.2,1650.4,3301.4z"/><path fill="#f4efa7" d="M1678.2,3313.9c-49.9,1-78.2,36.9-78.2,36.9s-1.4-0.3-11.3-2.6C1628.1,3292.4,1678.2,3313.9,1678.2,3313.9
						z"/><g><path fill="#ff9000" d="M1560.3,3459c0,0,12.7-107.5,60.6-133.9c47.8-26.4,122.9-8.6,156.3,47.2c33.5,55.8,9.1,114.4,9.1,114.4
				S1768.4,3507.4,1560.3,3459z"/></g><g><path fill="#00729f" d="M552.9,2579.2l785.3,4.5l325.7,149.8c0,0,11.3,135.6-224.8,287.1c-21.6-15.4-210.8-123.8-211.2-122.3
			c-1.1,4.4,64.4,102.8,104.8,172.7c-69,304.5-342.4,197.9-342.4,197.9s-283.7-285.7-378.7-401.9
			C516.5,2750.7,552.9,2579.2,552.9,2579.2z"/></g></g><g><path fill="#f05323" d="M566.5,1913.8c69.5-95.2,223.3-142.4,350.8-164.7l0.3-0.1c445.6-89.3,568.6,359.5,568.6,359.5
		s-46.9,24.3-139.9,39.8c11.2,150.7,27.3,341,53.2,444.4c1.5,1.6-133.8,116.1-438.1,130s-453.4-58.1-451.9-59.7
		c37.6-150.2,79-395.8,79-395.8l-111.7-30.7C476.9,2236.6,467.1,2050,566.5,1913.8z"/></g><g><path fill="#ff9000" d="M1107.3,2406.6l-59.7-29.2c-14.8-7.2-32.7-4.1-44.3,7.8l-46.1,47.8c-25.8,26.6-70.4,4.8-65.3-31.8l9.4-65.9
		c2.3-16.5-6.3-32.4-21.1-39.6l-59.7-29.2c-33.3-16.1-26.2-65.5,10.2-71.9l65.5-11.6c16.3-3,29-15.9,31.1-32.3l9.4-65.9
		c5.1-36.6,54.2-45.4,71.5-12.6l31.2,58.7c7.7,14.5,24,22.5,40.4,19.7l65.5-11.6c36.5-6.4,59.8,37.6,34,64.2l-46.1,47.8
		c-11.5,11.9-14,29.8-6.2,44.4l31.2,58.7C1175.3,2386.9,1140.6,2422.9,1107.3,2406.6z"/></g><g><path fill="#ff9000" d="M761.4,1810.2c12.3,70.3,94.7,114.7,184.1,99.1s151.9-85.2,139.7-155.5c-12.3-70.3-83.2-49.1-172.6-33.6
		S749.2,1739.9,761.4,1810.2z"/></g><g><path fill="#f4a56e" d="M827.9,1789.7c-2.6-26.1-6.2-77.2-6.2-77.2l173.2-30.2c0,0,13.9,49.3,20.3,74.8c6.4,25.5,10.3,70.3-81.4,86.3
		l0,0C842.1,1859.3,830.5,1815.8,827.9,1789.7z"/></g><g><path fill="#fcc597" d="M72.3,1250.9c53.7-59.6,123.6-18.5,143.1-5c-27.9-229.2-51.1-379.5-51.1-379.5
			c29.5-167.1,191.9-364,508.9-416.8l34.4-6c316.1-57.6,546.2,70.9,630.5,218.2c0,0,18.5,151,69.7,376.2
			c13.8-19.3,65.7-81.7,136.4-43.8c88.8,47.6,166.4,312.9-102.2,368.7c0-0.2,0-0.3,0-0.5c-27.4,157.9-181.8,294.4-529.6,357.9l0,0
			c-348.8,57.9-540.3-18.3-619.4-157.7c0.1,0.1,0.1,0.3,0.2,0.4C21.6,1601.7,4.9,1325.8,72.3,1250.9z"/><path fill="#fcbd82" d="M707.9,443.6l-0.1,0l-0.1,0L707.9,443.6z"/><path fill="#f4a56e" d="M882.2,1209.2c-34-4.8-66.4,13.6-65.4,19.6c1,6.5,50.4-19.6,72.7,1.6c25.3,24.2,1.7,63.4-35.5,72
			c-37.2,8.7,63.1,15.2,65.3-50.7C920.1,1226.8,900.5,1211.7,882.2,1209.2z"/><path fill="#f4a56e" d="M1515.3,1201.6c-31,12.6-52.9,11.4-61.2,39.5s-37-65.1-1.7-113.9C1519.4,1036.1,1585,1174.3,1515.3,1201.6z"/><path fill="#f4a56e" d="M169.6,1436.2c33.4,1.4,53.7-7.2,71,16.4c17.3,23.6,12.8-73.7-37-107.8C109.9,1281.7,94.9,1434,169.6,1436.2
			z"/><ellipse cx="1290" cy="1212.4" fill="#f89f75" rx="115.6" ry="91.2" transform="rotate(-16.962 1289.92 1212.238)"/><ellipse cx="407.3" cy="1370.5" fill="#f89f75" rx="115.6" ry="91.2" transform="rotate(-2.811 407.337 1370.477)"/></g><g><path fill="#4b2812" d="M1553.8,342c-1.4-3-3.1-6-4.7-8.8c-68.3-118.2-268.6-60.5-268.6-60.5C1455.9,176.5,1398.5-0.8,1140.8,0
		C445.4,9,251.5,425,251.5,425C130.6,475.2,62.9,556.9,29,649.8c-82.1,224.7,32.8,514.3,68,581c0,0,52-31.3,118.7,15.1
		c0,0,82.8-174.4,124.3-452.8c0,0,232.3,166.2,376.8,98.8c61.2-28.6-54.3-169.5-54.3-169.5S1015.1,847,1107,806
		s-70.9-169.5-70.9-169.5l101.8,17.6c133.2,247.9,270.1,384,270.1,384l0,0c0,0,45.6-64.5,107-54.6c19.8-80.4-6.2-294.5-52.5-400.2
		C1519.3,545.2,1611.7,460.9,1553.8,342z"/></g><g><path fill="#fcc597" d="M1230.7,1979.6c-110.5,108.9-419,190.5-639.4,283.7c-1.2,1.4-79-17.4-79-17.4s-48.5,266.6,256.3,166.9
			c104.1-34,239.5-101.6,482.3-252L1230.7,1979.6z"/></g><g><path fill="#fcc597" d="M1281.9,3050.9c0,0-110-27-199.6,84.8c1.7,19.8,35.3,346.8,54.9,494.8l144.3,4.7
			c3.7-179,24.7-489.2,24.7-489.2C1307.9,3107.9,1295.3,3069.8,1281.9,3050.9z"/><path fill="#f05323" d="M1135.3,3625.2c0,0-45.6-125.6-16.6-125.8c58.4,7.5,134.2-1.6,166.6-3.1c32.5-1.5-1.6,124.1-1.6,124.1
			C1283.6,3620.6,1177.9,3637.9,1135.3,3625.2z"/><path fill="#f4efa7" d="M1544.9,3746.9c0,0,4.3,27.3-13.6,41.6c-20.9,15.8-120.5,20.4-209.8,20.9c-89.3,0.6-195.5-16.1-207.4-23.9
			c-11.8-7.8-7.8-40.7-7.8-40.7s87-0.5,219.4-1.4C1458.2,3742.6,1544.9,3746.9,1544.9,3746.9z"/><path fill="#00729f" d="M1251.2,3622.6c0,0-76.1,7.9-116,2.6c-46.4,56.9-28.8,119.5-28.8,119.5s53.7,28.7,212.4,27.7
			c158.7-1,61.6-117.4,17.1-128.1S1251.2,3622.6,1251.2,3622.6z"/><path fill="#4b2812" d="M1327.8,3658.2c0,0-26.8,0.2-49.7,0.3c-22.9,0.1-40.5-13.5-26.9-35.8c13.6-22.2,44.8-28.1,79.9-28.4
			s62,10.3,62,10.3S1342.8,3614.5,1327.8,3658.2z"/><path fill="#f4efa7" d="M1316,3594.8c-31.5,3.1-47.1,35.1-55.3,60.6c-6.3-2.5-9.5-6.2-9.5-6.2
					C1257.8,3618.5,1282.7,3585.7,1316,3594.8z"/><path fill="#f4efa7" d="M1369.8,3598.2c-12.9-5.1-55.1,4.8-72.6,60.2c-7.4,0-11.3,0.1-11.3,0.1S1306.7,3573,1369.8,3598.2z"/><path fill="#f4efa7" d="M1399.7,3604c-48.3,12.6-67.5,54.1-67.5,54.1s-1.4,0-11.6,0.1C1346,3594.6,1399.7,3604,1399.7,3604z"/><path fill="#f4efa7" d="M1316,3594.8c-31.5,3.1-47.1,35.1-55.3,60.6c-6.3-2.5-9.5-6.2-9.5-6.2
					C1257.8,3618.5,1282.7,3585.7,1316,3594.8z"/><path fill="#f4efa7" d="M1369.8,3598.2c-12.9-5.1-55.1,4.8-72.6,60.2c-7.4,0-11.3,0.1-11.3,0.1S1306.7,3573,1369.8,3598.2z"/><path fill="#f4efa7" d="M1399.7,3604c-48.3,12.6-67.5,54.1-67.5,54.1s-1.4,0-11.6,0.1C1346,3594.6,1399.7,3604,1399.7,3604z"/><g><path fill="#ff9000" d="M1318.7,3772.5c0,0-12.6-107.5,27.7-144.3c40.4-36.8,117.5-36.9,163,9.5c45.6,46.5,35.4,109.2,35.4,109.2
			S1532.4,3771.2,1318.7,3772.5z"/></g></g><g><path fill="#fff" d="M995.2,3264.3c-0.5,0-1.1-0.1-1.6-0.4c-1.8-0.9-2.6-3.1-1.7-4.9c0.2-0.4,21.1-42.8,56.3-89.3
		c32.6-43,84.7-98.4,147.1-118.2c42.9-13.6,85.6-8.9,126.9,13.8c1.8,1,2.4,3.2,1.4,5c-1,1.8-3.2,2.4-5,1.4
		c-39.5-21.7-80.2-26.2-121.2-13.2c-60.6,19.2-111.5,73.5-143.5,115.6c-34.8,45.9-55.4,87.6-55.6,88.1
		C997.9,3263.5,996.6,3264.3,995.2,3264.3z"/></g><g><path fill="#00729f" d="M1432.3,1765.4c138.5,9.3,159.9,44.6,132.4,237.3c-27.5,192.7-17.9,212.2-177.3,224.3
				c-142.6,10.8-133.7-86.4-111.7-232.5C1298.4,1844,1295.9,1756.2,1432.3,1765.4z"/><path fill="#fff" d="M1311.9,2199.6c-1.4,0-2.7-0.8-3.3-2.1c-25.7-56-15.9-136.7,2.2-263.9c17.2-121,41.5-140.4,56.1-152.1
				c1.6-1.3,3.9-1,5.2,0.6c1.3,1.6,1,3.9-0.6,5.2c-13.7,11-36.6,29.3-53.4,147.4c-17.9,125.8-27.6,205.7-2.8,259.8
				c0.8,1.8,0,4-1.8,4.9C1312.9,2199.5,1312.4,2199.6,1311.9,2199.6z"/><path fill="#fcc597" d="M1221,2001.5c7.4-43.3,40-84.1,66.7-89.4c-1.9,13.3-5.3,36.2-7.2,49.4c58.8-25.1,162.3-2.6,200.1,22.4
				c29.3,22.5,22.7,47.2-59.4,31.6c97.9,15.7,121.5,62.6-1.2,55.2c0,0,69.9,12.9,64.7,39.2c-5.2,26.3-88.7,16.9-88.7,16.9
				s76.5,10,58,31.5c-25.7,29.8-189.1,8.6-189.1,8.6C1211.9,2160.8,1207.1,2082.4,1221,2001.5z"/><path fill="#4b2812" d="M1433.4,2019.4c-0.2,0-0.4,0-0.6-0.1c-0.4-0.1-43.1-9.6-82.2-11.7c-1.5-0.1-2.6-1.3-2.5-2.8
				c0.1-1.5,1.3-2.6,2.8-2.5c39.6,2.2,82.7,11.8,83.1,11.8c1.4,0.3,2.4,1.8,2,3.2C1435.7,2018.5,1434.6,2019.4,1433.4,2019.4z"/><path fill="#4b2812" d="M1422.1,2073.3c-0.2,0-0.3,0-0.5,0c-0.4-0.1-40.9-7-80.2-9.2c-1.5-0.1-2.6-1.3-2.5-2.8
				c0.1-1.5,1.3-2.6,2.8-2.5c39.5,2.2,80.4,9.2,80.8,9.3c1.5,0.3,2.4,1.6,2.2,3.1C1424.5,2072.3,1423.4,2073.3,1422.1,2073.3z"/><path fill="#4b2812" d="M1399.3,2128.4c-0.1,0-0.2,0-0.3,0c-0.2,0-22.8-2.6-62.1-4.8c-1.5-0.1-2.6-1.3-2.5-2.8
				c0.1-1.5,1.3-2.6,2.8-2.5c39.5,2.2,62.2,4.8,62.4,4.8c1.5,0.2,2.5,1.5,2.4,3C1401.8,2127.4,1400.7,2128.4,1399.3,2128.4z"/></g><g><path fill="#f05323" d="M1385.1,1588.2c0,0,24.4,110.9,27.8,126.9c3.5,16.1,37.1,15,38.5-4.7c1.4-19.7-4.2-116.3-4.2-133
			C1447.1,1547.6,1377.5,1561.4,1385.1,1588.2z"/><path fill="#f05323" d="M1495.2,1584.4c0,0-6.8,113.3-7.8,129.7c-1,16.4,31.6,24.6,38.3,6c6.7-18.6,27.7-113.1,32.2-129.1
			C1566,1562.2,1495.3,1556.6,1495.2,1584.4z"/><path fill="#f05323" d="M1607.4,1615.5c0,0-43.6,104.8-50,119.9c-6.4,15.2,21.8,33.6,34.2,18.2c12.4-15.4,63.3-97.7,72.8-111.4
			C1681.6,1617.8,1616.6,1589.2,1607.4,1615.5z"/></g><g><path fill="#f4a56e" d="M933.5,1585.7l0.6-0.1c57-11.1,65.2-27.7,65.2-27.7s-7.2,52.2-58.6,62.2l-0.6,0.1
		c-51.5,10.1-77.5-35.6-77.5-35.6S876.6,1596.8,933.5,1585.7z"/></g><g><path fill="#3d200f" d="M543.5,1006.9c-45.9,4-68.1,25.3-80.2,21.8c-12-3.4,14.5-38,70.6-48.5c49.9-9.3,83.7,9.4,80.9,24.7
		C612,1020.3,583.9,1003.4,543.5,1006.9z"/></g><g><path fill="#3d200f" d="M1051.3,911.9c44.3-12.9,72.7-1,82.7-8.7s-27.3-30.2-83.4-19.7c-49.9,9.3-74.6,39-66.5,52.3
		C992.2,949.2,1012.4,923.2,1051.3,911.9z"/></g><g><circle cx="572.8" cy="1184.7" r="96.7" fill="#3d200f" transform="rotate(-9.46 572.877 1184.807)"/></g><g><circle cx="597.3" cy="1156.9" r="39.7" fill="#fff" transform="rotate(-23.84 597.255 1156.788)"/></g><g><circle cx="556.3" cy="1237.1" r="23.4" fill="#fff" transform="rotate(-23.84 556.219 1236.995)"/></g><g><circle cx="1088.6" cy="1088.1" r="96.7" fill="#3d200f" transform="rotate(-9.46 1088.734 1088.224)"/></g><g><circle cx="1131.9" cy="1060.3" r="39.7" fill="#fff" transform="rotate(-23.84 1131.809 1060.252)"/></g><g><circle cx="1072.1" cy="1140.5" r="23.4" fill="#fff" transform="rotate(-23.84 1071.987 1140.459)"/></g><g><path fill="#620506" d="M760.1,1368.3c20.5-1.4,81-6.7,129.6-16.3c48.6-9.6,106.5-27.7,126-34.2c26.3-8.8,46.9-2.7,51.6,26.1
				c10.6,65.2,5.3,176.6-139.5,205.3l-0.1,0c-144.8,28.6-191.4-72.7-205.8-137.1C715.7,1383.6,732.5,1370.2,760.1,1368.3z"/><path fill="#f2f5ef" d="M760.1,1368.3c17.6-1.3,83.6-7.1,129.6-16.3l0.1,0c46.1-9,109.3-28.7,126.1-34.2
				c26.5-8.8,46.9-2.7,51.6,26.1c0,0-69.9,25.8-170.5,45.7c-100.5,19.9-174.9,22.5-174.9,22.5
				C715.7,1383.6,732.2,1370.2,760.1,1368.3z"/><path fill="#e74343" d="M909.5,1460l2.3-0.4c76.7-15.2,132.9,20.9,132.9,20.9c-9.1,12-34.7,52.5-116.7,68.7l-0.1,0
			c-82,16.2-120.8-11.5-133.7-19.2C794.2,1529.9,832.7,1475.2,909.5,1460z"/></g><g><path fill="#ff9000" d="M710.6,2214.8c-0.2,0-0.4,0-0.5,0c-2-0.3-3.4-2.1-3.1-4.2l31-214.3c0.3-2,2.1-3.4,4.2-3.1
		c2,0.3,3.4,2.1,3.1,4.2l-31,214.3C713.9,2213.5,712.3,2214.8,710.6,2214.8z"/></g></svg>