<svg xmlns="http://www.w3.org/2000/svg" viewBox="0 0 4000 3000"><defs><clipPath id="a"><rect width="4000" height="3000" fill="none"/></clipPath><clipPath id="b"><ellipse cx="3047.375" cy="2645.238" fill="#914d44" rx="225.717" ry="40.554"/></clipPath><clipPath id="c"><polygon fill="#9879c9" stroke="#190000" stroke-linecap="round" stroke-linejoin="round" stroke-width="11" points="3489.92 813.246 2604.83 813.246 2770.023 258.542 3324.727 258.542 3489.92 813.246"/></clipPath><clipPath id="d"><path fill="#399fe8" stroke="#190000" stroke-linecap="round" stroke-linejoin="round" stroke-width="11" d="M1921.5775,460.8653H944.166v-.0009H581.9466a132.1189,132.1189,0,0,1,132.119,132.1189v97.8892h0V2298.2464h1339.63V592.9833A132.1181,132.1181,0,0,0,1921.5775,460.8653Z"/></clipPath><clipPath id="e"><path fill="#fbd164" stroke="#190000" stroke-linecap="round" stroke-linejoin="round" stroke-width="11" d="M1366.0175,2138.6806,542.0415,1612.578v991.2448a99.903,99.903,0,0,0,99.903,99.903H2090.09a99.9029,99.9029,0,0,0,99.9029-99.903V1612.578Z"/></clipPath><clipPath id="f"><path fill="#399fe8" stroke="#190000" stroke-linecap="round" stroke-linejoin="round" stroke-width="11" d="M1803.6055,2660.5107l122.5327-761.9152a287.2374,287.2374,0,0,1,189.1159-225.6469h0l307.6014,437.1176,89.0425,599.0132-708.2926-48.5687Z"/></clipPath><clipPath id="g"><path fill="#399fe8" stroke="#190000" stroke-linecap="round" stroke-linejoin="round" stroke-width="11" d="M2156.59,2020.9651l84.1337,708.3512h938.9936L2969.9515,1551.527s-509.9183-28.1272-866.0882,125.6735"/></clipPath><clipPath id="h"><polyline fill="#faccc4" stroke="#190000" stroke-linecap="round" stroke-linejoin="round" stroke-width="11" points="2648.648 1575.271 2564.55 1307.859 2356.963 1436.927 2355.82 1461.573 2345.249 1689.478"/></clipPath><clipPath id="i"><path fill="#faccc4" stroke="#190000" stroke-linecap="round" stroke-linejoin="round" stroke-width="11" d="M2539.1191,1286.5329l-3.9186-84.178-120.8024-152.7923-239.1625,80.0113c-31.69,353.0812,109.56,496.9811,307.8245,314.8845"/></clipPath><clipPath id="j"><path fill="#c1525f" d="M2237.5713,1387.8255c52.5264,115.8556,154.5378,36.939,138.0342-39.0235a9.5776,9.5776,0,0,0-8.1839-7.3222c-16.8953-2.2217-64.8115-3.8648-126.058,34.0795A9.7941,9.7941,0,0,0,2237.5713,1387.8255Z"/></clipPath><clipPath id="k"><path fill="#9879c9" stroke="#190000" stroke-linecap="round" stroke-linejoin="round" stroke-width="11" d="M2237.3494,2741.4585H1158.4975L897.95,2097.6961c-11.0761-27.3667,5.1172-49.5519,36.1686-49.5519h966.4048c31.0514,0,65.2025,22.1852,76.2785,49.5519Z"/></clipPath><clipPath id="l"><path fill="#399fe8" stroke="#190000" stroke-linecap="round" stroke-linejoin="round" stroke-width="11" d="M2961.2864,1788.8536l176.386,704.3922h386.99L3224.62,1703.9853a232.101,232.101,0,0,0-218.009-152.4583l-105.4646-2.8426"/></clipPath><clipPath id="m"><path fill="#faccc4" stroke="#190000" stroke-linecap="round" stroke-linejoin="round" stroke-width="11" d="M2231.124,2453.9447s13.7179,70.57,179.1817-63.7823c0,0-50.1383,118.7908,28.0562,126.6254,0,0,46.5988,24.5923,72.5344,16.6008,0,0,64.2625,28.7662,92.6475,26.4991,0,0,22.656-35.1369-36.8022-52.0285l18.09-31.31s164.37,4.8185,188.9741,2.8347l567.8792,236.3173c80.4293,33.47,172.3928-8.0936,200.4154-90.5789v0c29.2829-86.1949-23.9809-178.4336-113.2779-196.128-223.5793-44.3028-599.6436-114.8073-680.1184-113.1735-88.0407,1.7873-263.09-32.6154-318.5111-22.2416C2383.8291,2302.2574,2231.124,2453.9447,2231.124,2453.9447Z"/></clipPath></defs><g clip-path="url(#a)"><path fill="#914d44" d="M3215.5979,2645.2375c-41.3305-8.2955-101.378-13.5178-168.223-13.5178s-126.8937,5.2223-168.2235,13.5178h-57.4935v27.0358c0,22.3973,101.0568,40.5538,225.717,40.5538s225.7164-18.1565,225.7164-40.5538v-27.0358Z"/><ellipse cx="3047.375" cy="2645.238" fill="#914d44" rx="225.717" ry="40.554"/><g clip-path="url(#b)"><ellipse cx="3002.583" cy="2638.165" fill="#b06759" stroke="#190000" stroke-linecap="round" stroke-linejoin="round" stroke-width="11" rx="225.717" ry="40.554"/></g><polyline fill="#b06759" stroke="#190000" stroke-linecap="round" stroke-linejoin="round" stroke-width="11" points="3034.47 2650.985 3034.47 720.795 3060.279 720.795 3060.279 2650.985"/><circle cx="3047.375" cy="994.117" r="39.573" fill="#fbd164" stroke="#190000" stroke-linecap="round" stroke-linejoin="round" stroke-width="11"/><rect width="79.145" height="16.152" x="3007.802" y="938.392" fill="#b06759" stroke="#190000" stroke-linecap="round" stroke-linejoin="round" stroke-width="11"/><rect width="79.145" height="16.152" x="3007.802" y="1036.112" fill="#b06759" stroke="#190000" stroke-linecap="round" stroke-linejoin="round" stroke-width="11"/><circle cx="3047.375" cy="2367.996" r="39.573" fill="#fbd164" stroke="#190000" stroke-linecap="round" stroke-linejoin="round" stroke-width="11"/><rect width="79.145" height="16.152" x="3007.802" y="2312.271" fill="#b06759" stroke="#190000" stroke-linecap="round" stroke-linejoin="round" stroke-width="11"/><rect width="79.145" height="16.152" x="3007.802" y="2409.991" fill="#b06759" stroke="#190000" stroke-linecap="round" stroke-linejoin="round" stroke-width="11"/><polygon fill="#9879c9" points="3489.92 813.246 2604.83 813.246 2770.023 258.542 3324.727 258.542 3489.92 813.246"/><g clip-path="url(#c)"><path fill="#6f4eb9" d="M3260.16,183.414c150.8772,608.2236,75.5223,627.8653-655.3308,629.8317s301.7124,332.01,301.7124,332.01l787.39-101.0673-4.7149-508.295L3274.3051-33.472"/></g><polygon fill="none" stroke="#190000" stroke-linecap="round" stroke-linejoin="round" stroke-width="11" points="3489.92 813.246 2604.83 813.246 2770.023 258.542 3324.727 258.542 3489.92 813.246"/><path fill="none" stroke="#6f4eb9" stroke-linecap="round" stroke-linejoin="round" stroke-width="11" d="M2970.497,380.4241a404.7329,404.7329,0,0,0-46.9138,47.3866"/><path fill="none" stroke="#6d3417" stroke-linecap="round" stroke-linejoin="round" stroke-width="11" d="M3168.6449,2618.5776l-12.5731,12.5731"/><path fill="#f9b964" stroke="#190000" stroke-linecap="round" stroke-linejoin="round" stroke-width="11" d="M2189.9934,1612.578h0a38.9424,38.9424,0,0,0-38.9424-38.9425H580.984a38.9425,38.9425,0,0,0-38.9425,38.9425h0l823.976,526.1026Z"/><path fill="#3b8be2" stroke="#190000" stroke-linecap="round" stroke-linejoin="round" stroke-width="11" d="M581.9468,460.8645h-.0009A132.1189,132.1189,0,0,0,449.827,592.9835V1288.199H714.0658V592.9835A132.119,132.119,0,0,0,581.9468,460.8645Z"/><path fill="#399fe8" d="M1921.5775,460.8653H944.166v-.0009H581.9466a132.1189,132.1189,0,0,1,132.119,132.1189v97.8892h0V2298.2464h1339.63V592.9833A132.1181,132.1181,0,0,0,1921.5775,460.8653Z"/><g clip-path="url(#d)"><path fill="#3b8be2" d="M2095.2438,643.1263c-69.07,1824.8961-1603.8694,1307.8678-1603.8694,1307.8678l264.2387,719.7946,1403.1384,311.948,374.3376-1724.7846L2095.2438,643.1263"/></g><path fill="none" stroke="#190000" stroke-linecap="round" stroke-linejoin="round" stroke-width="11" d="M1921.5775,460.8653H944.166v-.0009H581.9466a132.1189,132.1189,0,0,1,132.119,132.1189v97.8892h0V2298.2464h1339.63V592.9833A132.1181,132.1181,0,0,0,1921.5775,460.8653Z"/><path fill="#9879c9" stroke="#190000" stroke-linecap="round" stroke-linejoin="round" stroke-width="11" d="M846.1849,2298.2464h0c-7.9628,0,7.5748,1.35,0,0Z"/><g opacity=".73"><path fill="#fff" stroke="#190000" stroke-linecap="round" stroke-linejoin="round" stroke-width="11" d="M947.0754,962.4288A100.7048,100.7048,0,1,0,1047.78,1063.1331,100.7042,100.7042,0,0,0,947.0754,962.4288Zm0,148.3226a47.6178,47.6178,0,1,1,47.6174-47.6183A47.6175,47.6175,0,0,1,947.0754,1110.7514Z"/><rect width="836.408" height="56.187" x="1095.335" y="992.987" fill="#fff" stroke="#190000" stroke-linecap="round" stroke-linejoin="round" stroke-width="11" rx="9.276"/><rect width="305.764" height="55.337" x="1095.335" y="1077.943" fill="#fff" stroke="#190000" stroke-linecap="round" stroke-linejoin="round" stroke-width="11" rx="9.136"/><rect width="305.764" height="55.337" x="1434.747" y="1077.943" fill="#fff" stroke="#190000" stroke-linecap="round" stroke-linejoin="round" stroke-width="11" rx="9.136"/></g><g opacity=".73"><path fill="#fff" stroke="#190000" stroke-linecap="round" stroke-linejoin="round" stroke-width="11" d="M947.0754,1697.9491A100.7048,100.7048,0,1,0,1047.78,1798.6535,100.7043,100.7043,0,0,0,947.0754,1697.9491Zm0,148.3226a47.6178,47.6178,0,1,1,47.6174-47.6182A47.6175,47.6175,0,0,1,947.0754,1846.2717Z"/><rect width="836.408" height="56.187" x="1095.335" y="1728.507" fill="#fff" stroke="#190000" stroke-linecap="round" stroke-linejoin="round" stroke-width="11" rx="9.276"/><rect width="305.764" height="55.337" x="1095.335" y="1813.464" fill="#fff" stroke="#190000" stroke-linecap="round" stroke-linejoin="round" stroke-width="11" rx="9.136"/><rect width="305.764" height="55.337" x="1434.747" y="1813.464" fill="#fff" stroke="#190000" stroke-linecap="round" stroke-linejoin="round" stroke-width="11" rx="9.136"/></g><rect width="297.696" height="57.354" x="1240.209" y="667.294" fill="#fff" stroke="#190000" stroke-linecap="round" stroke-linejoin="round" stroke-width="11" rx="9.469"/><rect width="499.801" height="32.774" x="1139.156" y="780.637" fill="#fff" stroke="#190000" stroke-linecap="round" stroke-linejoin="round" stroke-width="11" rx="5.411"/><path fill="#fff" stroke="#190000" stroke-linecap="round" stroke-linejoin="round" stroke-width="11" d="M947.0754,1330.1889A100.7049,100.7049,0,1,0,1047.78,1430.8933,100.7043,100.7043,0,0,0,947.0754,1330.1889Zm0,148.3227a47.6179,47.6179,0,1,1,47.6174-47.6183A47.6175,47.6175,0,0,1,947.0754,1478.5116Z"/><rect width="836.408" height="56.187" x="1095.335" y="1360.747" fill="#fff" stroke="#190000" stroke-linecap="round" stroke-linejoin="round" stroke-width="11" rx="9.276"/><rect width="305.764" height="55.337" x="1095.335" y="1445.703" fill="#fff" stroke="#190000" stroke-linecap="round" stroke-linejoin="round" stroke-width="11" rx="9.136"/><rect width="305.764" height="55.337" x="1434.747" y="1445.703" fill="#fff" stroke="#190000" stroke-linecap="round" stroke-linejoin="round" stroke-width="11" rx="9.136"/><path fill="#fbd164" d="M1366.0175,2138.6806,542.0415,1612.578v991.2448a99.903,99.903,0,0,0,99.903,99.903H2090.09a99.9029,99.9029,0,0,0,99.9029-99.903V1612.578Z"/><g clip-path="url(#e)"><path fill="#f9b964" d="M2189.9934,1496.5505C2350.7188,3279.1778,583.6151,2837.0071,544.36,2607.1292c0,0-197.4612,589.8063-174.0651,613.2024s1887.2858,31.1948,1887.2858,31.1948l7.7987-1563.6432-179.37-239.24"/></g><path fill="none" stroke="#190000" stroke-linecap="round" stroke-linejoin="round" stroke-width="11" d="M1366.0175,2138.6806,542.0415,1612.578v991.2448a99.903,99.903,0,0,0,99.903,99.903H2090.09a99.9029,99.9029,0,0,0,99.9029-99.903V1612.578Z"/><path fill="none" stroke="#2976df" stroke-linecap="round" stroke-linejoin="round" stroke-width="11" d="M1013.8946,627.6557,967.7218,690.5"/><path fill="none" stroke="#d89d35" stroke-linecap="round" stroke-linejoin="round" stroke-width="11" d="M1840.2136,2213.7358c-36.5278,53.24-79.4743,98.844-126.7413,134.5838"/><path fill="#399fe8" d="M1803.6055,2660.5107l122.5327-761.9152a287.2374,287.2374,0,0,1,189.1159-225.6469h0l307.6014,437.1176,89.0425,599.0132-708.2926-48.5687Z"/><g clip-path="url(#f)"><path fill="#3b8be2" d="M2191.65,1921.9759c-76.3958,933.597-230.0178,819.4826-230.0178,819.4826l378.9078,54.7527,95.5747-54.7527L2261.6338,1986.734l-78.0786-134.9128"/><polyline fill="#fff" stroke="#190000" stroke-linecap="round" stroke-linejoin="round" stroke-width="11" points="1839.002 2191.014 2283.654 2599.781 2193.976 2794.083 1803.606 2509.467"/></g><path fill="none" stroke="#190000" stroke-linecap="round" stroke-linejoin="round" stroke-width="11" d="M1803.6055,2660.5107l122.5327-761.9152a287.2374,287.2374,0,0,1,189.1159-225.6469h0l307.6014,437.1176,89.0425,599.0132-708.2926-48.5687Z"/><path fill="#399fe8" d="M2156.59,2020.9651l84.1337,708.3512h938.9936L2969.9515,1551.527s-509.9183-28.1272-866.0882,125.6735"/><g clip-path="url(#g)"><ellipse cx="2523.68" cy="1581.671" fill="#fff" stroke="#190000" stroke-linecap="round" stroke-linejoin="round" stroke-width="11" rx="332.388" ry="237.477" transform="rotate(-46.588 2523.68 1581.671)"/><ellipse cx="2514.671" cy="1579.719" fill="#faccc4" stroke="#190000" stroke-linecap="round" stroke-linejoin="round" stroke-width="11" rx="276.866" ry="197.968" transform="rotate(-46.588 2514.672 1579.72)"/><path fill="#3b8be2" d="M2957.955,1672.9486c35.0888,897.669-183.9891,568.1213-362.2968,618.6766-194.1064,55.0345-10.8262,184.9241-10.8262,184.9241s594.8848,214.43,356.4593,264.9092c-59.3494,12.5654,324.1849,73.3764,340.9859-50.4793s-16.7208-399.354-16.7208-399.354L3028.11,1672.9486"/><path fill="#fff" stroke="#190000" stroke-linecap="round" stroke-linejoin="round" stroke-width="11" d="M2537.6061,1962.69c-134.3477,18.805-235.3977,136.2891-225.6739,262.3758,9.7241,126.0892,126.5433,213.0782,260.891,194.2732,134.3505-18.8054,235.4012-136.29,225.6771-262.3794C2788.7764,2030.8726,2671.9566,1943.8843,2537.6061,1962.69Zm31.4438,407.7218c-105.5671,14.7764-197.3437-53.5643-204.9847-152.6432-7.6408-99.0757,71.7471-191.3749,177.3142-206.1513,105.5706-14.777,197.3472,53.5638,204.988,152.64C2754.0084,2263.3354,2674.6205,2355.6345,2569.05,2370.4115Z"/><path fill="#fff" stroke="#190000" stroke-linecap="round" stroke-linejoin="round" stroke-width="11" d="M2469.8668,2151.9594c14.3982-2.0154,25.2236-14.6006,24.1817-28.1109s-13.5568-22.8317-27.955-20.8163c-14.3954,2.015-25.22,14.6033-24.1779,28.1135S2455.4714,2153.9743,2469.8668,2151.9594Z"/><path fill="#fff" stroke="#190000" stroke-linecap="round" stroke-linejoin="round" stroke-width="11" d="M2629.0067,2080.2288c-14.3953,2.015-25.22,14.6033-24.1779,28.1136s13.5558,22.8286,27.9512,20.8136c14.3982-2.0153,25.2236-14.6006,24.1817-28.1108S2643.4049,2078.2135,2629.0067,2080.2288Z"/><path fill="#fff" stroke="#190000" stroke-linecap="round" stroke-linejoin="round" stroke-width="11" d="M2639.4494,2158.6687c-11.9435,1.6718-20.9313,12.0731-20.1573,23.2718l-.0042.0006.0079.1019c2.5627,33.23-24.036,64.1545-59.4432,69.11-34.6764,4.8538-64.8788-17.011-68.5172-49.1312a19.53,19.53,0,0,0-.0449-2.1651c-.8683-11.2582-11.2954-19.0251-23.294-17.3456-11.9959,1.6791-21.0178,12.1683-20.15,23.4265l-.1615.0226.0078.102c4.3,55.7585,55.8955,94.1785,115.3038,85.863,59.3746-8.3108,103.9851-60.14,99.749-115.8589-.0013-.0175-.0013-.035-.0027-.0525l-.0018-.0173-.0022-.0349-.0078-.1019-.0042.0006C2661.776,2164.6869,2651.39,2156.9974,2639.4494,2158.6687Z"/></g><path fill="none" stroke="#190000" stroke-linecap="round" stroke-linejoin="round" stroke-width="11" d="M2156.59,2020.9651l84.1337,708.3512h938.9936L2969.9515,1551.527s-509.9183-28.1272-866.0882,125.6735"/><polyline fill="#faccc4" points="2648.648 1575.271 2564.55 1307.859 2356.963 1436.927 2355.82 1461.573 2345.249 1689.478"/><g clip-path="url(#h)"><path fill="#ed707b" d="M2248.7975,1754.4579c262.487-194.3632,131.8328-241.4689,223.3372-343.8689s-223.955-4.5376-223.955-4.5376l-.7431,252.7068"/></g><polyline fill="none" stroke="#190000" stroke-linecap="round" stroke-linejoin="round" stroke-width="11" points="2648.648 1575.271 2564.55 1307.859 2356.963 1436.927 2355.82 1461.573 2345.249 1689.478"/><path fill="#faccc4" d="M2539.1191,1286.5329l-3.9186-84.178-120.8024-152.7923-239.1625,80.0113c-31.69,353.0812,109.56,496.9811,307.8245,314.8845"/><g clip-path="url(#i)"><ellipse cx="2152.282" cy="1396.988" fill="#ed707b" opacity=".27" rx="77.078" ry="52.733"/><ellipse cx="2430.54" cy="1340.169" fill="#ed707b" opacity=".27" rx="47.726" ry="41.188"/><path fill="#190000" d="M2221.1447,1276.5082h0a14.421,14.421,0,0,1,14.421,14.421v24.3558a14.4211,14.4211,0,0,1-14.4211,14.4211h0a14.4211,14.4211,0,0,1-14.4211-14.4211v-24.3556A14.4212,14.4212,0,0,1,2221.1447,1276.5082Z" transform="rotate(-8.561 2221.142 1303.106)"/><path fill="#190000" d="M2391.0029,1250.94h0a14.421,14.421,0,0,1,14.421,14.421v24.3558a14.4211,14.4211,0,0,1-14.4211,14.4211h0a14.4211,14.4211,0,0,1-14.4211-14.4211V1265.361A14.4212,14.4212,0,0,1,2391.0029,1250.94Z" transform="rotate(-8.561 2391.006 1277.54)"/><path fill="#190000" d="M2208.5682,1243.7291c-27.825,12.869-19.81,26.64-1.8914,19.7295S2226.7474,1235.3212,2208.5682,1243.7291Z"/><path fill="#190000" d="M2380.9545,1216.6367c30.38,4.1075,26.7744,19.6276,7.6156,18.2984S2361.1057,1213.9531,2380.9545,1216.6367Z"/><path fill="#ed707b" d="M2303.7146,1294.0269c1.6861,11.2012-9.387,8.3267-22.2217,10.2587s-22.5708,7.9388-24.2569-3.2624,7.3516-21.8477,20.1863-23.78S2302.0285,1282.8257,2303.7146,1294.0269Z"/><path fill="#c1525f" d="M2237.5713,1387.8255c52.5264,115.8556,154.5378,36.939,138.0342-39.0235a9.5776,9.5776,0,0,0-8.1839-7.3222c-16.8953-2.2217-64.8115-3.8648-126.058,34.0795A9.7941,9.7941,0,0,0,2237.5713,1387.8255Z"/><g clip-path="url(#j)"><ellipse cx="2340.914" cy="1433.419" fill="#993443" rx="63.771" ry="56.918" transform="rotate(-32.989 2340.687 1433.331)"/><path fill="#fff" d="M2254.0625,1363.0133c2.175,7.9819,5.88,18.6242,8.4963,20.036,16.1221,8.6984,76.92-13.481,83.5569-22.7245,1.8473-2.5729-4.7761-28.4118-4.7761-28.4118l-78.9751,24.2085"/></g></g><path fill="none" stroke="#190000" stroke-linecap="round" stroke-linejoin="round" stroke-width="11" d="M2539.1191,1286.5329l-3.9186-84.178-120.8024-152.7923-239.1625,80.0113c-31.69,353.0812,109.56,496.9811,307.8245,314.8845"/><path fill="#4b4d5c" stroke="#190000" stroke-linecap="round" stroke-linejoin="round" stroke-width="11" d="M2508.58,1304.9057c-146.5383-88.2208-104.2323-176.7972-104.2323-176.7972-538.9794,366.48-496.3358-264.0015-96.2923-175.526,0,0,257.25-202.73,251.5079,82.666C2772.2185,1041.32,2541.6872,1424.47,2508.58,1304.9057Z"/><path fill="#faccc4" stroke="#190000" stroke-linecap="round" stroke-linejoin="round" stroke-width="11" d="M2448.2586,1268.5948c138.701-133.3948,264.9394,52.7773,67.9974,114.6307"/><path fill="#9879c9" stroke="#190000" stroke-linecap="round" stroke-linejoin="round" stroke-width="11" d="M2261.6338,2741.4585H1182.7818L922.2341,2097.6961c-11.0761-27.3667,5.1172-49.5519,36.1686-49.5519h966.4048c31.0515,0,65.2025,22.1852,76.2786,49.5519Z"/><path fill="#9879c9" stroke="#190000" stroke-linecap="round" stroke-linejoin="round" stroke-width="11" d="M2691.7431,2690.9792H1149.2986l26.0559,50.4793H2773.9659l-6.0212-11.6652C2756.88,2708.3569,2722.7632,2690.9792,2691.7431,2690.9792Z"/><path fill="#9879c9" d="M2237.3494,2741.4585H1158.4975L897.95,2097.6961c-11.0761-27.3667,5.1172-49.5519,36.1686-49.5519h966.4048c31.0514,0,65.2025,22.1852,76.2785,49.5519Z"/><g clip-path="url(#k)"><path fill="#6f4eb9" d="M897.95,2097.6961c214.626,662.132,663.02,651.6364,963.23,662.132s-484.5523,164.4092-484.5523,164.4092l-692.5118-483.805,29.8926-419.4672"/></g><path fill="none" stroke="#190000" stroke-linecap="round" stroke-linejoin="round" stroke-width="11" d="M2237.3494,2741.4585H1158.4975L897.95,2097.6961c-11.0761-27.3667,5.1172-49.5519,36.1686-49.5519h966.4048c31.0514,0,65.2025,22.1852,76.2785,49.5519Z"/><ellipse cx="1530.341" cy="2372.516" fill="#9879c9" stroke="#190000" stroke-linecap="round" stroke-linejoin="round" stroke-width="11" rx="73.502" ry="109.411" transform="rotate(-59.568 1530.342 2372.517)"/><path fill="#399fe8" d="M2961.2864,1788.8536l176.386,704.3922h386.99L3224.62,1703.9853a232.101,232.101,0,0,0-218.009-152.4583l-105.4646-2.8426"/><g clip-path="url(#l)"><path fill="#fff" stroke="#190000" stroke-linecap="round" stroke-linejoin="round" stroke-width="11" d="M3040.3105,2327.0111c201.775,1.8683,455.5022,42.9706,509.8625,106.4924s0,113.9655,0,113.9655l-528.5453-54.2232"/></g><path fill="none" stroke="#190000" stroke-linecap="round" stroke-linejoin="round" stroke-width="11" d="M2961.2864,1788.8536l176.386,704.3922h386.99L3224.62,1703.9853a232.101,232.101,0,0,0-218.009-152.4583l-105.4646-2.8426"/><path fill="#faccc4" d="M2231.124,2453.9447s13.7179,70.57,179.1817-63.7823c0,0-50.1383,118.7908,28.0562,126.6254,0,0,46.5988,24.5923,72.5344,16.6008,0,0,64.2625,28.7662,92.6475,26.4991,0,0,22.656-35.1369-36.8022-52.0285l18.09-31.31s164.37,4.8185,188.9741,2.8347l567.8792,236.3173c80.4293,33.47,172.3928-8.0936,200.4154-90.5789v0c29.2829-86.1949-23.9809-178.4336-113.2779-196.128-223.5793-44.3028-599.6436-114.8073-680.1184-113.1735-88.0407,1.7873-263.09-32.6154-318.5111-22.2416C2383.8291,2302.2574,2231.124,2453.9447,2231.124,2453.9447Z"/><g clip-path="url(#m)"><path fill="#ed707b" d="M3212.9041,2328.5089c418.3272,194.3018,224.0254,400.8074,224.0254,400.8074l256.578-38.3371-39.8567-296.1779"/></g><path fill="none" stroke="#190000" stroke-linecap="round" stroke-linejoin="round" stroke-width="11" d="M2231.124,2453.9447s13.7179,70.57,179.1817-63.7823c0,0-50.1383,118.7908,28.0562,126.6254,0,0,46.5988,24.5923,72.5344,16.6008,0,0,64.2625,28.7662,92.6475,26.4991,0,0,22.656-35.1369-36.8022-52.0285l18.09-31.31s164.37,4.8185,188.9741,2.8347l567.8792,236.3173c80.4293,33.47,172.3928-8.0936,200.4154-90.5789v0c29.2829-86.1949-23.9809-178.4336-113.2779-196.128-223.5793-44.3028-599.6436-114.8073-680.1184-113.1735-88.0407,1.7873-263.09-32.6154-318.5111-22.2416C2383.8291,2302.2574,2231.124,2453.9447,2231.124,2453.9447Z"/><ellipse cx="1529.49" cy="2387.322" fill="#fbd164" stroke="#190000" stroke-linecap="round" stroke-linejoin="round" stroke-width="11" rx="112.923" ry="144.855" transform="rotate(-50.037 1529.492 2387.323)"/><polygon fill="#399fe8" stroke="#190000" stroke-linecap="round" stroke-linejoin="round" stroke-width="11" points="1094.449 2308.603 1284.522 2383.046 1317.475 2213.856 1127.402 2139.413 1094.449 2308.603"/><polygon fill="#fff" stroke="#190000" stroke-linecap="round" stroke-linejoin="round" stroke-width="11" points="1295.634 2535.711 1354.78 2490.33 1291.335 2420.702 1232.189 2466.082 1295.634 2535.711"/><path fill="none" stroke="#190000" stroke-linecap="round" stroke-linejoin="round" stroke-width="11" d="M2148.74,1052.85c2.7981,11.7546,12.1844,21.167,23.08,26.39s23.1959,6.7453,35.274,7.0917"/><path fill="none" stroke="#190000" stroke-linecap="round" stroke-linejoin="round" stroke-width="11" d="M2528.3271,1282.673a33.0037,33.0037,0,0,1-5.4368,35.5509"/><path fill="none" stroke="#190000" stroke-linecap="round" stroke-linejoin="round" stroke-width="11" d="M2530.356,1040.5724a66.8373,66.8373,0,0,1,39.77-5.1749"/><path fill="none" stroke="#2976df" stroke-linecap="round" stroke-linejoin="round" stroke-width="11" d="M3210.3247,2084.1338l14.9462,7.4732"/><path fill="none" stroke="#e84b23" stroke-linecap="round" stroke-linejoin="round" stroke-width="11" d="M2772.9193,2440.4323a70.9625,70.9625,0,0,1,2.7074,36.04"/><path fill="none" stroke="#6f4eb9" stroke-linecap="round" stroke-linejoin="round" stroke-width="11" d="M1834.9943,2525.3666l52.37,44.7709"/><path fill="none" stroke="#e84b23" stroke-linecap="round" stroke-linejoin="round" stroke-width="11" d="M2408.4423,2397.1558l19.8471-10.1237"/><path fill="none" stroke="#e84b23" stroke-linecap="round" stroke-linejoin="round" stroke-width="11" d="M2567.761,1659.3061l-25.0317,19.775"/><path fill="none" stroke="#2976df" stroke-linecap="round" stroke-linejoin="round" stroke-width="11" d="M2028.7889,1922.3813l54.9443-59.6552"/></g></svg>